<svg xmlns="http://www.w3.org/2000/svg" xmlns:xlink="http://www.w3.org/1999/xlink" width="400" zoomAndPan="magnify" viewBox="0 0 300 225" height="300" preserveAspectRatio="xMidYMid meet" version="1.0"><defs><g/><clipPath id="a190d32c46"><path d="M 97 8.652344 L 119 8.652344 L 119 23 L 97 23 Z M 97 8.652344 " clip-rule="nonzero"/></clipPath><clipPath id="9f79fc08ab"><path d="M 225 155 L 273 155 L 273 202.152344 L 225 202.152344 Z M 225 155 " clip-rule="nonzero"/></clipPath><clipPath id="9e176f2363"><path d="M 27 155 L 75 155 L 75 202.152344 L 27 202.152344 Z M 27 155 " clip-rule="nonzero"/></clipPath></defs><path fill="#f64b31" d="M 153.101562 65.921875 C 152.375 65.921875 151.527344 65.921875 150.566406 65.824219 C 150.847656 66.722656 151.078125 67.636719 151.257812 68.558594 L 151.542969 70.132812 L 150.265625 69.1875 C 149.273438 68.441406 148.324219 67.644531 147.417969 66.800781 C 146.753906 67.695312 146.035156 68.546875 145.261719 69.347656 L 144.441406 70.195312 L 144.207031 69.046875 C 143.957031 67.839844 143.792969 66.617188 143.71875 65.386719 C 142.503906 65.617188 141.28125 65.785156 140.050781 65.886719 L 138.476562 66.015625 L 139.53125 64.851562 C 140.167969 64.148438 140.847656 63.492188 141.578125 62.886719 C 140.128906 62.085938 138.554688 61.160156 138.289062 60.984375 C 137.273438 61.171875 136.304688 61.492188 135.375 61.941406 C 134.449219 62.390625 133.597656 62.957031 132.824219 63.636719 C 132.050781 64.316406 131.382812 65.089844 130.820312 65.953125 C 130.253906 66.8125 129.816406 67.734375 129.503906 68.71875 C 127.742188 74.894531 132.132812 81.570312 139.34375 83.613281 C 146.550781 85.65625 153.792969 82.3125 155.554688 76.136719 C 155.789062 75.25 155.910156 74.347656 155.917969 73.429688 C 155.929688 72.515625 155.828125 71.609375 155.613281 70.71875 C 155.398438 69.828125 155.078125 68.976562 154.652344 68.164062 C 154.230469 67.351562 153.710938 66.605469 153.101562 65.921875 Z M 134.777344 63.988281 C 135.734375 63.078125 136.875 62.632812 138.195312 62.652344 C 138.699219 62.839844 138.050781 63.53125 136.964844 64.472656 C 135.878906 65.417969 134.683594 66.265625 134.007812 66.203125 C 133.332031 66.140625 133.535156 65.054688 134.777344 63.988281 Z M 131.960938 76.449219 C 131.34375 75.367188 130.960938 74.207031 130.804688 72.96875 C 130.648438 71.734375 130.734375 70.515625 131.0625 69.3125 C 131.199219 68.832031 131.378906 68.367188 131.597656 67.914062 C 131.679688 67.738281 131.789062 67.578125 131.925781 67.441406 C 132.066406 67.304688 132.222656 67.195312 132.402344 67.117188 C 132.582031 67.039062 132.769531 66.996094 132.964844 66.988281 C 133.160156 66.980469 133.351562 67.003906 133.535156 67.066406 C 134.195312 67.320312 134.195312 68.167969 133.753906 69.015625 C 133.496094 69.519531 133.285156 70.042969 133.125 70.585938 C 132.84375 71.582031 132.734375 72.597656 132.800781 73.628906 C 132.863281 74.660156 133.097656 75.652344 133.503906 76.605469 C 134.792969 79.796875 133.929688 80.015625 131.960938 76.449219 Z M 131.960938 76.449219 " fill-opacity="1" fill-rule="nonzero"/><path fill="#157a2c" d="M 149.574219 65.101562 C 151.144531 65.257812 152.71875 65.320312 154.296875 65.292969 C 152.851562 64.484375 151.367188 63.761719 149.839844 63.121094 C 150.871094 62.429688 151.832031 61.648438 152.722656 60.78125 C 151.3125 60.863281 149.910156 61.03125 148.519531 61.285156 C 148.574219 60.300781 148.535156 59.320312 148.394531 58.34375 C 147.550781 58.988281 146.777344 59.714844 146.078125 60.515625 C 144.945312 59.421875 143.730469 58.421875 142.445312 57.511719 C 142.699219 58.679688 143.054688 59.816406 143.515625 60.921875 C 141.871094 60.664062 140.21875 60.496094 138.554688 60.417969 C 139.902344 61.285156 141.289062 62.070312 142.726562 62.777344 C 141.742188 63.511719 140.835938 64.328125 140.003906 65.226562 C 141.46875 65.105469 142.914062 64.886719 144.347656 64.570312 C 144.359375 66.023438 144.515625 67.464844 144.820312 68.890625 C 145.742188 67.914062 146.570312 66.867188 147.308594 65.746094 C 148.359375 66.761719 149.46875 67.707031 150.644531 68.574219 C 150.390625 67.386719 150.03125 66.230469 149.574219 65.101562 Z M 149.574219 65.101562 " fill-opacity="1" fill-rule="nonzero"/><path fill="#157a2c" d="M 79.074219 75.523438 C 78.988281 75.371094 78.894531 75.222656 78.789062 75.082031 C 76.648438 71.9375 69.898438 70.746094 66.199219 71.5625 L 65.820312 69.800781 C 70.164062 68.96875 77.167969 69.941406 80.316406 74.011719 C 80.460938 74.21875 80.585938 74.421875 80.710938 74.625 L 79.136719 75.523438 Z M 79.074219 75.523438 " fill-opacity="1" fill-rule="nonzero"/><path fill="#157a2c" d="M 80.851562 73.273438 C 79.515625 71.058594 78.910156 68.660156 79.042969 66.078125 C 79.003906 64.804688 79.164062 63.554688 79.53125 62.335938 C 79.898438 61.113281 80.449219 59.984375 81.183594 58.941406 L 82.570312 60.105469 C 81.34375 61.914062 80.773438 63.910156 80.851562 66.09375 C 80.722656 68.277344 81.210938 70.316406 82.316406 72.207031 L 80.867188 73.304688 L 80.867188 73.210938 Z M 80.851562 73.273438 " fill-opacity="1" fill-rule="nonzero"/><path fill="#157a2c" d="M 79.484375 72.535156 C 78.277344 70.671875 77.398438 68.664062 76.84375 66.511719 C 76.289062 64.363281 76.085938 62.179688 76.242188 59.964844 L 78.035156 60.199219 C 77.914062 62.191406 78.101562 64.152344 78.597656 66.085938 C 79.09375 68.019531 79.878906 69.828125 80.949219 71.515625 C 81.410156 72.148438 81.976562 72.671875 82.648438 73.085938 L 81.703125 74.65625 C 80.820312 74.089844 80.078125 73.371094 79.484375 72.503906 Z M 79.484375 72.535156 " fill-opacity="1" fill-rule="nonzero"/><path fill="#157a2c" d="M 80.316406 72.628906 C 79.425781 71.824219 78.640625 70.929688 77.957031 69.941406 C 75.933594 66.984375 74.359375 63.804688 73.234375 60.402344 L 71.519531 60.984375 C 72.695312 64.554688 74.34375 67.890625 76.460938 70.996094 C 77.15625 71.957031 77.933594 72.847656 78.789062 73.667969 C 79.273438 73.285156 79.785156 72.941406 80.316406 72.628906 Z M 80.316406 72.628906 " fill-opacity="1" fill-rule="nonzero"/><path fill="#157a2c" d="M 67.976562 66.28125 L 68.417969 64.535156 C 72.855469 65.699219 76.289062 70.242188 79.105469 72.945312 L 77.847656 74.25 C 74.886719 71.355469 71.550781 67.128906 67.976562 66.28125 Z M 67.976562 66.28125 " fill-opacity="1" fill-rule="nonzero"/><path fill="#f68820" d="M 77.957031 70.195312 C 75.5625 71.90625 74.808594 75.082031 77.375 79.527344 C 77.167969 79.167969 76.980469 78.804688 76.824219 78.460938 C 78.734375 77.039062 80.835938 75.992188 83.121094 75.316406 C 81.132812 76.570312 79.242188 77.960938 77.453125 79.480469 C 77.785156 80.0625 78.175781 80.675781 78.617188 81.304688 C 78.445312 81.070312 78.304688 80.832031 78.144531 80.597656 C 80.054688 79.171875 82.152344 78.125 84.441406 77.453125 C 82.445312 78.710938 80.546875 80.097656 78.742188 81.621094 L 79.546875 82.65625 C 81.425781 81.25 83.488281 80.203125 85.730469 79.511719 C 83.847656 80.753906 82.042969 82.101562 80.316406 83.550781 C 80.789062 84.132812 81.308594 84.746094 81.890625 85.375 L 81.214844 84.589844 C 83.03125 83.28125 85.015625 82.316406 87.164062 81.699219 C 85.34375 82.855469 83.585938 84.101562 81.890625 85.4375 L 82.835938 86.492188 C 84.5625 85.285156 86.433594 84.390625 88.457031 83.804688 C 87.242188 84.714844 85.148438 85.925781 83.542969 87.277344 L 82.945312 86.617188 C 83.472656 87.191406 83.996094 87.773438 84.519531 88.359375 C 86.140625 87.277344 87.886719 86.464844 89.761719 85.925781 C 88.628906 86.757812 86.753906 87.875 85.214844 89.066406 C 90.515625 94.617188 96.921875 100.242188 98.703125 98.96875 C 101.410156 97.019531 92.25 79.6875 88.34375 74.28125 C 84.441406 68.875 80.664062 68.246094 77.957031 70.195312 Z M 92.640625 96.078125 L 92.042969 95.574219 C 93.054688 95.066406 94.101562 94.664062 95.191406 94.363281 C 94.484375 94.851562 93.601562 95.433594 92.640625 96.078125 Z M 90.675781 94.394531 L 90.03125 93.8125 C 91.234375 93.136719 92.507812 92.613281 93.839844 92.242188 C 93.019531 92.839844 91.839844 93.515625 90.675781 94.394531 Z M 88.800781 92.652344 L 88.140625 92.023438 C 89.503906 91.203125 90.953125 90.574219 92.484375 90.136719 C 91.554688 90.828125 90.140625 91.691406 88.800781 92.652344 Z M 86.992188 90.890625 L 86.300781 90.199219 C 87.800781 89.234375 89.410156 88.511719 91.132812 88.03125 C 90.109375 88.800781 88.457031 89.792969 86.992188 90.890625 Z M 86.992188 90.890625 " fill-opacity="1" fill-rule="nonzero"/><path fill="#157a2c" d="M 124.390625 69.234375 C 124.863281 68.84375 125.269531 68.386719 125.601562 67.867188 C 127.851562 64.285156 126.074219 59.148438 121.636719 56.363281 C 119.714844 55.132812 117.617188 54.570312 115.339844 54.667969 C 115.160156 53.945312 114.890625 53.257812 114.53125 52.605469 C 114.171875 51.957031 113.730469 51.359375 113.214844 50.824219 C 112.699219 50.289062 112.121094 49.828125 111.484375 49.441406 C 110.84375 49.058594 110.167969 48.761719 109.453125 48.554688 C 105.203125 46.984375 100.890625 48.257812 99.804688 51.257812 L 99.804688 51.414062 C 99.613281 51.414062 99.425781 51.414062 99.222656 51.414062 C 95.679688 51.699219 92.925781 54.210938 93.242188 57.039062 C 93.265625 57.257812 93.308594 57.472656 93.367188 57.683594 C 91.035156 57.765625 89.164062 59.257812 89.164062 60.953125 C 89.164062 62.652344 91.132812 64.238281 93.539062 64.238281 C 94 64.28125 94.457031 64.246094 94.90625 64.136719 C 95.355469 64.027344 95.777344 63.847656 96.164062 63.597656 C 96.554688 63.347656 96.894531 63.042969 97.183594 62.683594 C 97.472656 62.320312 97.695312 61.921875 97.851562 61.488281 C 99.070312 61.769531 100.273438 61.734375 101.472656 61.378906 C 101.691406 62.183594 102.089844 62.886719 102.671875 63.484375 C 103.253906 64.082031 103.945312 64.5 104.746094 64.742188 C 105.484375 65.039062 106.25 65.152344 107.042969 65.082031 C 107.835938 65.011719 108.570312 64.769531 109.246094 64.347656 C 110.144531 66.464844 111.578125 68.121094 113.546875 69.3125 C 114.046875 69.636719 114.570312 69.914062 115.117188 70.148438 C 115.203125 71.285156 115.554688 72.332031 116.171875 73.289062 C 117.875 75.976562 121.007812 77.046875 123.148438 75.679688 C 123.621094 75.304688 124.011719 74.859375 124.324219 74.347656 C 124.636719 73.832031 124.851562 73.277344 124.964844 72.6875 C 125.078125 72.097656 125.085938 71.503906 124.988281 70.910156 C 124.890625 70.316406 124.691406 69.757812 124.390625 69.234375 Z M 94.988281 57.859375 L 94.796875 57.542969 C 94.691406 57.132812 94.664062 56.714844 94.71875 56.292969 C 94.773438 55.871094 94.902344 55.472656 95.109375 55.097656 C 95.316406 54.726562 95.582031 54.40625 95.914062 54.136719 C 96.242188 53.863281 96.613281 53.664062 97.019531 53.535156 L 97.679688 53.316406 C 97.253906 53.492188 96.878906 53.738281 96.550781 54.058594 C 96.222656 54.378906 95.964844 54.746094 95.777344 55.164062 C 95.589844 55.582031 95.484375 56.019531 95.464844 56.476562 C 95.445312 56.933594 95.511719 57.378906 95.664062 57.8125 L 95.867188 58.171875 C 96.046875 58.472656 96.265625 58.734375 96.53125 58.957031 C 95.867188 58.796875 95.355469 58.433594 94.988281 57.859375 Z M 100.921875 55.609375 C 100.675781 54.925781 100.613281 54.226562 100.738281 53.507812 C 100.863281 52.792969 101.152344 52.152344 101.613281 51.585938 C 102.339844 50.65625 103.246094 49.964844 104.335938 49.511719 C 104.675781 49.375 105.019531 49.265625 105.375 49.183594 C 104.097656 49.765625 103.136719 50.683594 102.496094 51.933594 C 102.152344 52.578125 101.957031 53.265625 101.917969 53.996094 C 101.875 54.726562 101.988281 55.433594 102.257812 56.113281 C 102.558594 56.816406 103 57.410156 103.582031 57.90625 C 102.980469 57.753906 102.449219 57.476562 101.980469 57.074219 C 101.511719 56.667969 101.160156 56.179688 100.921875 55.609375 Z M 102.90625 62.085938 C 102.75 61.722656 102.695312 61.34375 102.730469 60.953125 C 102.792969 60.507812 102.957031 60.097656 103.21875 59.730469 C 103.480469 59.359375 103.808594 59.074219 104.210938 58.863281 L 104.574219 58.691406 C 104.753906 58.621094 104.9375 58.570312 105.125 58.535156 C 104.871094 58.644531 104.640625 58.789062 104.429688 58.972656 C 103.921875 59.382812 103.59375 59.90625 103.457031 60.546875 C 103.320312 61.164062 103.382812 61.761719 103.644531 62.335938 C 103.828125 62.75 104.09375 63.105469 104.429688 63.40625 C 103.726562 63.191406 103.21875 62.75 102.90625 62.085938 Z M 112.097656 61.078125 C 111.582031 61.925781 111.28125 62.84375 111.199219 63.828125 C 110.960938 63.1875 110.855469 62.523438 110.878906 61.835938 C 110.902344 61.148438 111.058594 60.496094 111.339844 59.871094 C 111.421875 59.710938 111.484375 59.539062 111.578125 59.382812 C 111.972656 58.789062 112.46875 58.300781 113.066406 57.914062 C 113.667969 57.527344 114.320312 57.277344 115.023438 57.167969 C 115.96875 57.011719 116.910156 57.03125 117.84375 57.226562 C 118.78125 57.421875 119.652344 57.78125 120.453125 58.296875 C 120.84375 58.542969 121.210938 58.8125 121.558594 59.117188 C 121.179688 58.875 120.785156 58.675781 120.367188 58.515625 C 119.953125 58.351562 119.527344 58.230469 119.085938 58.148438 C 118.648438 58.070312 118.207031 58.03125 117.761719 58.035156 C 117.316406 58.039062 116.875 58.085938 116.4375 58.175781 C 116 58.265625 115.574219 58.394531 115.164062 58.566406 C 114.75 58.738281 114.359375 58.945312 113.988281 59.191406 C 113.617188 59.4375 113.269531 59.71875 112.953125 60.03125 C 112.636719 60.339844 112.347656 60.679688 112.097656 61.046875 Z M 118.09375 67.789062 C 117.738281 68.066406 117.457031 68.398438 117.242188 68.796875 C 117.296875 68.0625 117.613281 67.464844 118.1875 67.003906 C 118.484375 66.804688 118.808594 66.667969 119.160156 66.601562 C 119.511719 66.535156 119.859375 66.539062 120.210938 66.613281 C 120.558594 66.6875 120.878906 66.832031 121.171875 67.039062 C 121.460938 67.246094 121.703125 67.5 121.886719 67.804688 C 121.996094 67.964844 122.089844 68.132812 122.171875 68.308594 C 121.9375 68 121.65625 67.746094 121.320312 67.554688 C 120.984375 67.359375 120.625 67.238281 120.242188 67.1875 C 119.859375 67.140625 119.480469 67.167969 119.105469 67.273438 C 118.734375 67.375 118.398438 67.550781 118.09375 67.789062 Z M 114.410156 70.195312 C 112.296875 70.589844 110.34375 71.386719 108.558594 72.582031 C 106.769531 73.777344 105.289062 75.277344 104.117188 77.078125 C 105.675781 73.480469 106.234375 69.734375 105.800781 65.839844 C 105.367188 65.777344 104.941406 65.679688 104.527344 65.542969 C 103.96875 65.34375 103.445312 65.082031 102.953125 64.757812 C 102.527344 67.289062 101.976562 69.753906 101.378906 72.332031 C 101.238281 70.6875 100.859375 69.101562 100.242188 67.574219 C 99.625 66.042969 98.796875 64.640625 97.757812 63.359375 C 97.316406 63.859375 96.789062 64.253906 96.183594 64.535156 C 100.984375 70.523438 99.535156 79.386719 97.003906 82.453125 L 106.699219 85.925781 C 107.253906 83.351562 108.277344 80.980469 109.761719 78.804688 C 111.246094 76.628906 113.082031 74.8125 115.277344 73.351562 C 114.742188 72.367188 114.449219 71.3125 114.394531 70.195312 Z M 114.410156 70.195312 " fill-opacity="1" fill-rule="nonzero"/><path fill="#a4c52c" d="M 61.289062 80.410156 C 58.835938 80.410156 56.398438 80.578125 53.972656 80.917969 C 51.546875 81.261719 49.15625 81.769531 46.800781 82.441406 C 44.445312 83.117188 42.148438 83.953125 39.910156 84.949219 C 37.671875 85.945312 35.511719 87.089844 33.4375 88.390625 C 31.359375 89.6875 29.382812 91.121094 27.507812 92.695312 C 25.628906 94.269531 23.875 95.96875 22.234375 97.785156 C 20.597656 99.605469 19.09375 101.53125 17.726562 103.5625 C 16.359375 105.589844 15.140625 107.707031 14.066406 109.90625 C 13.578125 110.914062 16.476562 111.933594 16.050781 113.050781 L 109.878906 113.050781 C 108.898438 110.652344 107.75 108.339844 106.425781 106.113281 C 105.105469 103.882812 103.625 101.765625 101.988281 99.757812 C 100.355469 97.75 98.578125 95.871094 96.664062 94.125 C 94.75 92.378906 92.714844 90.785156 90.5625 89.339844 C 88.414062 87.894531 86.164062 86.613281 83.824219 85.5 C 81.484375 84.386719 79.070312 83.453125 76.59375 82.695312 C 74.113281 81.941406 71.589844 81.371094 69.023438 80.988281 C 66.460938 80.605469 63.882812 80.410156 61.289062 80.410156 Z M 61.289062 80.410156 " fill-opacity="1" fill-rule="nonzero"/><path fill="#57a52c" d="M 61.289062 89.695312 C 59.320312 89.695312 57.359375 89.832031 55.410156 90.097656 C 53.457031 90.367188 51.535156 90.765625 49.636719 91.296875 C 47.742188 91.828125 45.890625 92.484375 44.085938 93.265625 C 42.28125 94.050781 40.535156 94.953125 38.855469 95.976562 C 37.171875 97 35.566406 98.128906 34.039062 99.371094 C 32.511719 100.613281 31.078125 101.953125 29.734375 103.390625 C 28.390625 104.828125 27.152344 106.351562 26.019531 107.957031 C 24.882812 109.5625 23.867188 111.242188 22.960938 112.988281 L 99.613281 112.988281 C 98.710938 111.242188 97.691406 109.5625 96.554688 107.957031 C 95.421875 106.351562 94.183594 104.828125 92.839844 103.390625 C 91.496094 101.953125 90.0625 100.613281 88.535156 99.375 C 87.007812 98.132812 85.402344 97 83.722656 95.976562 C 82.039062 94.957031 80.296875 94.054688 78.488281 93.269531 C 76.683594 92.484375 74.832031 91.828125 72.9375 91.296875 C 71.042969 90.765625 69.117188 90.367188 67.167969 90.097656 C 65.214844 89.832031 63.257812 89.695312 61.289062 89.695312 Z M 61.289062 89.695312 " fill-opacity="1" fill-rule="nonzero"/><path fill="#ffffff" d="M 61.289062 90.371094 C 63.210938 90.375 65.121094 90.507812 67.027344 90.769531 C 68.929688 91.03125 70.808594 91.417969 72.660156 91.933594 C 74.507812 92.449219 76.316406 93.089844 78.082031 93.847656 C 79.84375 94.609375 81.550781 95.484375 83.195312 96.476562 C 84.839844 97.46875 86.410156 98.566406 87.90625 99.769531 C 89.402344 100.976562 90.8125 102.273438 92.128906 103.667969 C 93.449219 105.0625 94.667969 106.542969 95.789062 108.101562 C 96.90625 109.660156 97.914062 111.289062 98.8125 112.988281 L 100.386719 112.988281 C 99.472656 111.191406 98.445312 109.46875 97.292969 107.816406 C 96.144531 106.164062 94.886719 104.597656 93.519531 103.117188 C 92.152344 101.640625 90.691406 100.261719 89.136719 98.980469 C 87.578125 97.703125 85.941406 96.539062 84.222656 95.484375 C 82.507812 94.433594 80.726562 93.503906 78.878906 92.695312 C 77.035156 91.886719 75.140625 91.210938 73.203125 90.664062 C 71.261719 90.117188 69.292969 89.703125 67.296875 89.429688 C 65.300781 89.152344 63.296875 89.015625 61.28125 89.015625 C 59.265625 89.015625 57.257812 89.152344 55.261719 89.429688 C 53.265625 89.703125 51.296875 90.117188 49.359375 90.664062 C 47.417969 91.210938 45.527344 91.886719 43.679688 92.695312 C 41.835938 93.503906 40.054688 94.433594 38.335938 95.484375 C 36.617188 96.539062 34.980469 97.703125 33.425781 98.980469 C 31.867188 100.261719 30.40625 101.640625 29.039062 103.117188 C 27.675781 104.597656 26.417969 106.164062 25.265625 107.816406 C 24.117188 109.46875 23.085938 111.191406 22.175781 112.988281 L 23.746094 112.988281 C 24.644531 111.289062 25.652344 109.660156 26.773438 108.101562 C 27.894531 106.539062 29.113281 105.0625 30.433594 103.667969 C 31.753906 102.269531 33.160156 100.972656 34.65625 99.765625 C 36.152344 98.5625 37.726562 97.464844 39.371094 96.472656 C 41.015625 95.480469 42.722656 94.605469 44.488281 93.84375 C 46.253906 93.085938 48.0625 92.445312 49.914062 91.929688 C 51.765625 91.414062 53.644531 91.027344 55.546875 90.765625 C 57.453125 90.503906 59.367188 90.375 61.289062 90.371094 Z M 61.289062 90.371094 " fill-opacity="1" fill-rule="nonzero"/><path fill="#157a2c" d="M 61.289062 99.109375 C 58.628906 99.109375 56.007812 99.417969 53.421875 100.039062 C 50.839844 100.660156 48.363281 101.570312 45.992188 102.777344 C 43.625 103.984375 41.433594 105.449219 39.410156 107.175781 C 37.390625 108.898438 35.601562 110.835938 34.042969 112.988281 L 88.535156 112.988281 C 86.972656 110.835938 85.183594 108.898438 83.164062 107.175781 C 81.144531 105.449219 78.949219 103.984375 76.582031 102.777344 C 74.214844 101.570312 71.738281 100.660156 69.152344 100.039062 C 66.566406 99.417969 63.945312 99.109375 61.289062 99.109375 Z M 61.289062 99.109375 " fill-opacity="1" fill-rule="nonzero"/><path fill="#ffffff" d="M 61.289062 99.800781 C 63.84375 99.808594 66.367188 100.105469 68.855469 100.695312 C 71.339844 101.285156 73.726562 102.148438 76.011719 103.292969 C 78.300781 104.433594 80.425781 105.824219 82.386719 107.457031 C 84.351562 109.09375 86.101562 110.929688 87.636719 112.972656 L 89.414062 112.972656 C 89.019531 112.410156 88.609375 111.863281 88.179688 111.328125 C 87.753906 110.789062 87.308594 110.269531 86.847656 109.757812 C 86.390625 109.25 85.914062 108.753906 85.425781 108.273438 C 84.9375 107.792969 84.433594 107.324219 83.917969 106.875 C 83.402344 106.425781 82.871094 105.988281 82.328125 105.570312 C 81.785156 105.152344 81.230469 104.746094 80.664062 104.363281 C 80.09375 103.976562 79.515625 103.605469 78.925781 103.253906 C 78.339844 102.902344 77.738281 102.570312 77.128906 102.253906 C 76.519531 101.9375 75.902344 101.640625 75.273438 101.363281 C 74.648438 101.082031 74.011719 100.824219 73.371094 100.582031 C 72.726562 100.34375 72.078125 100.121094 71.421875 99.917969 C 70.765625 99.71875 70.105469 99.535156 69.4375 99.371094 C 68.769531 99.210938 68.097656 99.066406 67.421875 98.945312 C 66.75 98.824219 66.070312 98.71875 65.386719 98.636719 C 64.707031 98.558594 64.023438 98.496094 63.335938 98.453125 C 62.652344 98.414062 61.964844 98.394531 61.28125 98.394531 C 60.59375 98.394531 59.90625 98.414062 59.222656 98.453125 C 58.539062 98.496094 57.855469 98.558594 57.171875 98.636719 C 56.492188 98.71875 55.8125 98.824219 55.136719 98.945312 C 54.460938 99.066406 53.789062 99.210938 53.121094 99.371094 C 52.457031 99.535156 51.792969 99.71875 51.136719 99.917969 C 50.484375 100.121094 49.832031 100.34375 49.191406 100.582031 C 48.546875 100.824219 47.914062 101.082031 47.285156 101.363281 C 46.660156 101.640625 46.039062 101.9375 45.429688 102.253906 C 44.820312 102.570312 44.222656 102.902344 43.632812 103.253906 C 43.042969 103.605469 42.464844 103.976562 41.898438 104.363281 C 41.332031 104.746094 40.777344 105.152344 40.234375 105.570312 C 39.6875 105.988281 39.160156 106.425781 38.640625 106.875 C 38.125 107.324219 37.621094 107.792969 37.132812 108.273438 C 36.644531 108.753906 36.171875 109.25 35.710938 109.757812 C 35.25 110.269531 34.808594 110.789062 34.378906 111.328125 C 33.953125 111.863281 33.539062 112.410156 33.144531 112.972656 L 34.9375 112.972656 C 36.472656 110.925781 38.21875 109.085938 40.183594 107.449219 C 42.144531 105.8125 44.269531 104.425781 46.554688 103.28125 C 48.84375 102.136719 51.230469 101.273438 53.71875 100.683594 C 56.207031 100.097656 58.730469 99.804688 61.289062 99.800781 Z M 61.289062 99.800781 " fill-opacity="1" fill-rule="nonzero"/><path fill="#005b0f" d="M 61.289062 107.109375 C 58.296875 107.101562 55.394531 107.605469 52.578125 108.613281 C 49.765625 109.625 47.207031 111.082031 44.902344 112.988281 L 77.671875 112.988281 C 75.371094 111.082031 72.8125 109.625 69.996094 108.617188 C 67.179688 107.605469 64.277344 107.105469 61.289062 107.109375 Z M 61.289062 107.109375 " fill-opacity="1" fill-rule="nonzero"/><path fill="#ffffff" d="M 61.289062 107.800781 C 64.039062 107.800781 66.710938 108.246094 69.3125 109.136719 C 71.914062 110.023438 74.304688 111.308594 76.476562 112.988281 L 78.742188 112.988281 C 78.148438 112.460938 77.53125 111.964844 76.890625 111.496094 C 76.253906 111.027344 75.59375 110.589844 74.914062 110.179688 C 74.234375 109.769531 73.535156 109.390625 72.824219 109.046875 C 72.109375 108.699219 71.378906 108.386719 70.636719 108.105469 C 69.894531 107.824219 69.144531 107.578125 68.378906 107.367188 C 67.613281 107.152344 66.839844 106.976562 66.058594 106.832031 C 65.28125 106.691406 64.492188 106.582031 63.703125 106.511719 C 62.914062 106.441406 62.121094 106.40625 61.328125 106.40625 C 60.535156 106.40625 59.742188 106.441406 58.953125 106.511719 C 58.160156 106.582031 57.375 106.691406 56.59375 106.832031 C 55.8125 106.976562 55.042969 107.152344 54.277344 107.367188 C 53.511719 107.578125 52.757812 107.824219 52.015625 108.105469 C 51.273438 108.386719 50.546875 108.699219 49.832031 109.046875 C 49.117188 109.390625 48.421875 109.769531 47.742188 110.179688 C 47.0625 110.589844 46.402344 111.027344 45.761719 111.496094 C 45.121094 111.964844 44.503906 112.460938 43.910156 112.988281 L 46.128906 112.988281 C 48.300781 111.3125 50.683594 110.03125 53.28125 109.144531 C 55.875 108.257812 58.542969 107.808594 61.289062 107.800781 Z M 61.289062 107.800781 " fill-opacity="1" fill-rule="nonzero"/><path fill="#a4c52c" d="M 190.324219 133.433594 C 190.292969 131.535156 190.171875 129.644531 189.957031 127.757812 C 189.742188 125.875 189.433594 124.003906 189.035156 122.148438 C 188.640625 120.292969 188.152344 118.460938 187.578125 116.652344 C 187 114.847656 186.339844 113.070312 185.589844 111.328125 C 184.839844 109.582031 184.011719 107.878906 183.09375 106.214844 C 182.179688 104.554688 181.1875 102.9375 180.117188 101.371094 C 179.042969 99.804688 177.898438 98.292969 176.679688 96.839844 C 175.460938 95.382812 174.171875 93.992188 172.820312 92.660156 C 171.464844 91.328125 170.046875 90.066406 168.570312 88.875 C 167.09375 87.683594 165.5625 86.5625 163.976562 85.519531 C 162.390625 84.476562 160.753906 83.511719 159.074219 82.625 C 157.394531 81.738281 155.675781 80.9375 153.917969 80.21875 C 152.15625 79.5 150.367188 78.867188 148.546875 78.320312 C 146.730469 77.777344 144.886719 77.320312 143.023438 76.953125 C 141.15625 76.589844 139.28125 76.3125 137.386719 76.128906 C 135.496094 75.945312 133.601562 75.851562 131.703125 75.851562 C 129.800781 75.851562 127.90625 75.945312 126.015625 76.128906 C 124.121094 76.3125 122.246094 76.589844 120.378906 76.953125 C 118.515625 77.320312 116.675781 77.777344 114.855469 78.320312 C 113.035156 78.867188 111.246094 79.5 109.484375 80.21875 C 107.726562 80.9375 106.007812 81.738281 104.328125 82.625 C 102.648438 83.511719 101.015625 84.476562 99.425781 85.519531 C 97.839844 86.5625 96.308594 87.683594 94.832031 88.875 C 93.355469 90.066406 91.9375 91.328125 90.582031 92.660156 C 89.230469 93.992188 87.941406 95.382812 86.722656 96.839844 C 85.503906 98.292969 84.359375 99.804688 83.285156 101.371094 C 82.214844 102.9375 81.222656 104.554688 80.308594 106.214844 C 79.394531 107.878906 78.5625 109.582031 77.8125 111.328125 C 77.0625 113.070312 76.402344 114.847656 75.824219 116.652344 C 75.25 118.460938 74.761719 120.292969 74.367188 122.148438 C 73.96875 124.003906 73.664062 125.875 73.445312 127.757812 C 73.230469 129.644531 73.109375 131.535156 73.078125 133.433594 C 73.078125 134.5 73.078125 135.570312 73.171875 136.574219 L 190.230469 136.574219 C 190.292969 135.570312 190.324219 134.5 190.324219 133.433594 Z M 190.324219 133.433594 " fill-opacity="1" fill-rule="nonzero"/><path fill="#ffffff" d="M 73.863281 133.433594 C 73.894531 131.5625 74.015625 129.695312 74.230469 127.835938 C 74.441406 125.976562 74.746094 124.132812 75.136719 122.300781 C 75.527344 120.472656 76.007812 118.664062 76.578125 116.878906 C 77.144531 115.097656 77.800781 113.34375 78.539062 111.625 C 79.277344 109.90625 80.097656 108.226562 81 106.585938 C 81.902344 104.945312 82.882812 103.351562 83.9375 101.804688 C 84.996094 100.261719 86.125 98.769531 87.328125 97.335938 C 88.53125 95.898438 89.800781 94.523438 91.136719 93.210938 C 92.472656 91.898438 93.871094 90.65625 95.328125 89.476562 C 96.785156 88.300781 98.296875 87.199219 99.863281 86.167969 C 101.425781 85.136719 103.039062 84.183594 104.695312 83.3125 C 106.355469 82.4375 108.050781 81.644531 109.785156 80.9375 C 111.519531 80.226562 113.285156 79.605469 115.082031 79.066406 C 116.875 78.53125 118.695312 78.078125 120.535156 77.71875 C 122.371094 77.355469 124.226562 77.085938 126.089844 76.902344 C 127.957031 76.722656 129.828125 76.632812 131.703125 76.632812 C 133.574219 76.632812 135.445312 76.722656 137.3125 76.902344 C 139.175781 77.085938 141.03125 77.355469 142.871094 77.71875 C 144.707031 78.078125 146.527344 78.53125 148.320312 79.066406 C 150.117188 79.605469 151.882812 80.226562 153.617188 80.9375 C 155.351562 81.644531 157.046875 82.4375 158.707031 83.3125 C 160.363281 84.183594 161.976562 85.136719 163.539062 86.167969 C 165.105469 87.199219 166.617188 88.300781 168.074219 89.476562 C 169.53125 90.65625 170.929688 91.898438 172.265625 93.210938 C 173.601562 94.523438 174.871094 95.898438 176.074219 97.335938 C 177.277344 98.769531 178.40625 100.261719 179.464844 101.804688 C 180.519531 103.351562 181.5 104.945312 182.402344 106.585938 C 183.304688 108.226562 184.125 109.90625 184.863281 111.625 C 185.605469 113.34375 186.257812 115.097656 186.824219 116.878906 C 187.394531 118.664062 187.875 120.472656 188.265625 122.300781 C 188.65625 124.132812 188.960938 125.976562 189.171875 127.835938 C 189.386719 129.695312 189.507812 131.5625 189.539062 133.433594 C 189.539062 134.5 189.539062 135.570312 189.445312 136.574219 L 191.019531 136.574219 C 191.019531 135.523438 191.113281 134.453125 191.113281 133.433594 C 191.082031 131.507812 190.957031 129.59375 190.738281 127.683594 C 190.519531 125.773438 190.210938 123.875 189.808594 121.996094 C 189.40625 120.117188 188.910156 118.261719 188.328125 116.425781 C 187.746094 114.59375 187.074219 112.796875 186.316406 111.027344 C 185.558594 109.261719 184.714844 107.535156 183.789062 105.847656 C 182.859375 104.164062 181.855469 102.527344 180.769531 100.9375 C 179.683594 99.351562 178.519531 97.820312 177.285156 96.34375 C 176.050781 94.871094 174.746094 93.457031 173.375 92.109375 C 172 90.761719 170.566406 89.480469 169.066406 88.273438 C 167.570312 87.0625 166.019531 85.929688 164.410156 84.871094 C 162.800781 83.8125 161.148438 82.835938 159.445312 81.9375 C 157.742188 81.039062 156 80.226562 154.214844 79.496094 C 152.433594 78.769531 150.621094 78.128906 148.777344 77.574219 C 146.929688 77.023438 145.0625 76.5625 143.175781 76.191406 C 141.285156 75.820312 139.382812 75.539062 137.464844 75.351562 C 135.546875 75.167969 133.628906 75.074219 131.703125 75.074219 C 129.777344 75.074219 127.855469 75.167969 125.9375 75.351562 C 124.019531 75.539062 122.117188 75.820312 120.226562 76.191406 C 118.339844 76.5625 116.472656 77.023438 114.625 77.574219 C 112.78125 78.128906 110.96875 78.769531 109.1875 79.496094 C 107.402344 80.226562 105.660156 81.039062 103.957031 81.9375 C 102.253906 82.835938 100.601562 83.8125 98.992188 84.871094 C 97.382812 85.929688 95.832031 87.0625 94.335938 88.273438 C 92.835938 89.480469 91.402344 90.761719 90.027344 92.109375 C 88.65625 93.457031 87.351562 94.871094 86.117188 96.34375 C 84.882812 97.820312 83.722656 99.351562 82.632812 100.9375 C 81.546875 102.527344 80.542969 104.164062 79.617188 105.847656 C 78.6875 107.535156 77.847656 109.261719 77.085938 111.027344 C 76.328125 112.796875 75.65625 114.59375 75.074219 116.425781 C 74.492188 118.261719 73.996094 120.117188 73.59375 121.996094 C 73.191406 123.875 72.882812 125.773438 72.664062 127.683594 C 72.445312 129.59375 72.320312 131.507812 72.289062 133.433594 C 72.289062 134.5 72.289062 135.570312 72.382812 136.574219 L 73.957031 136.574219 C 73.894531 135.570312 73.863281 134.5 73.863281 133.433594 Z M 73.863281 133.433594 " fill-opacity="1" fill-rule="nonzero"/><path fill="#57a52c" d="M 179.921875 133.433594 C 179.921875 131.855469 179.84375 130.28125 179.6875 128.710938 C 179.535156 127.144531 179.300781 125.585938 178.996094 124.039062 C 178.6875 122.492188 178.304688 120.964844 177.84375 119.453125 C 177.386719 117.945312 176.855469 116.460938 176.25 115.003906 C 175.644531 113.546875 174.972656 112.125 174.226562 110.734375 C 173.480469 109.34375 172.671875 107.992188 171.792969 106.679688 C 170.914062 105.371094 169.976562 104.105469 168.972656 102.886719 C 167.972656 101.667969 166.914062 100.5 165.796875 99.382812 C 164.679688 98.269531 163.507812 97.210938 162.289062 96.210938 C 161.066406 95.210938 159.800781 94.273438 158.488281 93.394531 C 157.175781 92.519531 155.820312 91.710938 154.425781 90.964844 C 153.035156 90.222656 151.609375 89.550781 150.148438 88.945312 C 148.691406 88.34375 147.203125 87.8125 145.691406 87.355469 C 144.179688 86.898438 142.652344 86.515625 141.101562 86.207031 C 139.554688 85.898438 137.992188 85.667969 136.421875 85.511719 C 134.847656 85.359375 133.273438 85.28125 131.695312 85.28125 C 130.113281 85.28125 128.539062 85.359375 126.964844 85.511719 C 125.394531 85.667969 123.832031 85.898438 122.285156 86.207031 C 120.734375 86.515625 119.207031 86.898438 117.695312 87.355469 C 116.183594 87.8125 114.695312 88.34375 113.238281 88.945312 C 111.777344 89.550781 110.351562 90.222656 108.960938 90.964844 C 107.566406 91.710938 106.210938 92.519531 104.898438 93.394531 C 103.585938 94.273438 102.320312 95.210938 101.097656 96.210938 C 99.878906 97.210938 98.707031 98.269531 97.589844 99.382812 C 96.472656 100.5 95.414062 101.667969 94.414062 102.886719 C 93.410156 104.105469 92.472656 105.371094 91.59375 106.679688 C 90.714844 107.992188 89.90625 109.34375 89.160156 110.734375 C 88.414062 112.125 87.742188 113.546875 87.136719 115.003906 C 86.53125 116.460938 86 117.945312 85.542969 119.453125 C 85.082031 120.964844 84.699219 122.492188 84.390625 124.039062 C 84.085938 125.585938 83.851562 127.144531 83.699219 128.710938 C 83.542969 130.28125 83.464844 131.855469 83.464844 133.433594 C 83.464844 134.5 83.464844 135.570312 83.574219 136.574219 L 179.796875 136.574219 C 179.875 135.570312 179.921875 134.5 179.921875 133.433594 Z M 179.921875 133.433594 " fill-opacity="1" fill-rule="nonzero"/><path fill="#ffffff" d="M 84.269531 133.433594 C 84.238281 131.863281 84.289062 130.296875 84.417969 128.730469 C 84.542969 127.167969 84.75 125.613281 85.03125 124.070312 C 85.3125 122.527344 85.671875 121 86.105469 119.492188 C 86.539062 117.984375 87.046875 116.5 87.628906 115.042969 C 88.210938 113.585938 88.863281 112.160156 89.585938 110.765625 C 90.308594 109.375 91.101562 108.019531 91.957031 106.703125 C 92.816406 105.390625 93.738281 104.121094 94.722656 102.898438 C 95.707031 101.675781 96.75 100.503906 97.851562 99.382812 C 98.953125 98.265625 100.105469 97.203125 101.3125 96.195312 C 102.519531 95.191406 103.773438 94.246094 105.074219 93.367188 C 106.375 92.488281 107.71875 91.671875 109.101562 90.925781 C 110.480469 90.175781 111.898438 89.5 113.347656 88.890625 C 114.796875 88.285156 116.273438 87.75 117.773438 87.289062 C 119.277344 86.832031 120.800781 86.445312 122.339844 86.136719 C 123.882812 85.824219 125.433594 85.59375 126.996094 85.4375 C 128.5625 85.28125 130.128906 85.203125 131.703125 85.203125 C 133.273438 85.203125 134.839844 85.28125 136.40625 85.4375 C 137.96875 85.59375 139.523438 85.824219 141.0625 86.136719 C 142.601562 86.445312 144.125 86.832031 145.628906 87.289062 C 147.128906 87.75 148.605469 88.285156 150.054688 88.890625 C 151.503906 89.5 152.921875 90.175781 154.300781 90.925781 C 155.683594 91.671875 157.027344 92.488281 158.328125 93.367188 C 159.628906 94.246094 160.882812 95.191406 162.089844 96.195312 C 163.296875 97.203125 164.449219 98.265625 165.550781 99.382812 C 166.652344 100.503906 167.695312 101.675781 168.679688 102.898438 C 169.664062 104.121094 170.585938 105.390625 171.445312 106.703125 C 172.300781 108.019531 173.09375 109.375 173.816406 110.765625 C 174.539062 112.160156 175.191406 113.585938 175.773438 115.042969 C 176.355469 116.5 176.863281 117.984375 177.296875 119.492188 C 177.730469 121 178.089844 122.527344 178.371094 124.070312 C 178.652344 125.613281 178.859375 127.167969 178.984375 128.730469 C 179.113281 130.296875 179.164062 131.863281 179.132812 133.433594 C 179.132812 134.5 179.132812 135.570312 179.007812 136.574219 L 180.582031 136.574219 C 180.582031 135.523438 180.691406 134.453125 180.691406 133.433594 C 180.722656 131.8125 180.671875 130.191406 180.539062 128.578125 C 180.40625 126.960938 180.195312 125.355469 179.902344 123.761719 C 179.609375 122.167969 179.242188 120.589844 178.792969 119.03125 C 178.34375 117.476562 177.816406 115.941406 177.21875 114.4375 C 176.617188 112.929688 175.941406 111.457031 175.195312 110.019531 C 174.445312 108.582031 173.628906 107.183594 172.742188 105.824219 C 171.855469 104.46875 170.902344 103.15625 169.886719 101.894531 C 168.867188 100.628906 167.792969 99.417969 166.652344 98.261719 C 165.515625 97.105469 164.324219 96.007812 163.078125 94.972656 C 161.828125 93.933594 160.535156 92.957031 159.191406 92.050781 C 157.847656 91.140625 156.460938 90.296875 155.03125 89.527344 C 153.605469 88.753906 152.140625 88.054688 150.644531 87.425781 C 149.148438 86.800781 147.625 86.25 146.070312 85.773438 C 144.519531 85.296875 142.945312 84.898438 141.355469 84.578125 C 139.765625 84.261719 138.160156 84.019531 136.542969 83.859375 C 134.929688 83.699219 133.308594 83.617188 131.683594 83.617188 C 130.0625 83.617188 128.441406 83.699219 126.828125 83.859375 C 125.210938 84.019531 123.605469 84.261719 122.015625 84.578125 C 120.425781 84.898438 118.851562 85.296875 117.300781 85.773438 C 115.746094 86.25 114.222656 86.800781 112.726562 87.425781 C 111.226562 88.054688 109.765625 88.753906 108.339844 89.527344 C 106.910156 90.296875 105.523438 91.140625 104.179688 92.050781 C 102.835938 92.957031 101.542969 93.933594 100.292969 94.972656 C 99.046875 96.007812 97.855469 97.105469 96.71875 98.261719 C 95.578125 99.417969 94.503906 100.628906 93.484375 101.894531 C 92.46875 103.15625 91.515625 104.46875 90.628906 105.824219 C 89.742188 107.183594 88.925781 108.582031 88.175781 110.019531 C 87.429688 111.457031 86.753906 112.929688 86.152344 114.4375 C 85.554688 115.941406 85.027344 117.476562 84.578125 119.03125 C 84.128906 120.589844 83.761719 122.167969 83.46875 123.761719 C 83.175781 125.355469 82.964844 126.960938 82.832031 128.578125 C 82.699219 130.191406 82.648438 131.8125 82.679688 133.433594 C 82.679688 134.5 82.679688 135.570312 82.789062 136.574219 L 84.363281 136.574219 C 84.316406 135.570312 84.269531 134.5 84.269531 133.433594 Z M 84.269531 133.433594 " fill-opacity="1" fill-rule="nonzero"/><path fill="#157a2c" d="M 169.40625 133.433594 C 169.332031 132.246094 169.207031 131.070312 169.019531 129.894531 C 168.835938 128.722656 168.597656 127.5625 168.304688 126.410156 C 168.007812 125.261719 167.660156 124.128906 167.261719 123.011719 C 166.859375 121.894531 166.40625 120.796875 165.902344 119.722656 C 165.394531 118.648438 164.84375 117.597656 164.238281 116.578125 C 163.632812 115.554688 162.984375 114.5625 162.285156 113.601562 C 161.585938 112.640625 160.84375 111.714844 160.058594 110.824219 C 159.273438 109.933594 158.449219 109.082031 157.582031 108.265625 C 156.714844 107.453125 155.8125 106.683594 154.875 105.953125 C 153.9375 105.226562 152.964844 104.542969 151.960938 103.90625 C 150.957031 103.269531 149.925781 102.683594 148.867188 102.144531 C 147.808594 101.605469 146.726562 101.117188 145.621094 100.679688 C 144.515625 100.242188 143.394531 99.855469 142.25 99.523438 C 141.109375 99.195312 139.953125 98.917969 138.789062 98.695312 C 137.621094 98.472656 136.445312 98.304688 135.261719 98.191406 C 134.078125 98.082031 132.890625 98.023438 131.703125 98.023438 C 130.511719 98.023438 129.324219 98.082031 128.140625 98.191406 C 126.957031 98.304688 125.78125 98.472656 124.617188 98.695312 C 123.449219 98.917969 122.292969 99.195312 121.152344 99.523438 C 120.007812 99.855469 118.886719 100.242188 117.78125 100.679688 C 116.675781 101.117188 115.59375 101.605469 114.535156 102.144531 C 113.476562 102.683594 112.445312 103.269531 111.441406 103.90625 C 110.4375 104.542969 109.464844 105.226562 108.527344 105.953125 C 107.589844 106.683594 106.6875 107.453125 105.820312 108.265625 C 104.953125 109.082031 104.128906 109.933594 103.34375 110.824219 C 102.558594 111.714844 101.816406 112.640625 101.117188 113.601562 C 100.417969 114.5625 99.769531 115.554688 99.164062 116.578125 C 98.5625 117.597656 98.007812 118.648438 97.5 119.722656 C 96.996094 120.796875 96.542969 121.894531 96.140625 123.011719 C 95.742188 124.128906 95.394531 125.261719 95.097656 126.410156 C 94.804688 127.5625 94.566406 128.722656 94.382812 129.894531 C 94.195312 131.070312 94.070312 132.246094 93.996094 133.433594 C 93.996094 134.515625 93.996094 135.570312 94.152344 136.574219 L 169.25 136.574219 C 169.34375 135.570312 169.40625 134.515625 169.40625 133.433594 Z M 169.40625 133.433594 " fill-opacity="1" fill-rule="nonzero"/><path fill="#ffffff" d="M 94.78125 133.433594 C 94.808594 132.242188 94.890625 131.054688 95.03125 129.871094 C 95.167969 128.6875 95.367188 127.511719 95.621094 126.347656 C 95.875 125.183594 96.183594 124.035156 96.550781 122.902344 C 96.914062 121.765625 97.335938 120.652344 97.808594 119.558594 C 98.28125 118.464844 98.808594 117.398438 99.386719 116.355469 C 99.964844 115.3125 100.589844 114.300781 101.265625 113.316406 C 101.941406 112.335938 102.664062 111.386719 103.429688 110.476562 C 104.199219 109.5625 105.007812 108.691406 105.863281 107.855469 C 106.714844 107.023438 107.605469 106.230469 108.535156 105.484375 C 109.464844 104.738281 110.425781 104.035156 111.425781 103.382812 C 112.421875 102.726562 113.449219 102.121094 114.503906 101.566406 C 115.5625 101.011719 116.640625 100.511719 117.746094 100.058594 C 118.851562 99.609375 119.976562 99.214844 121.117188 98.871094 C 122.261719 98.53125 123.417969 98.246094 124.589844 98.015625 C 125.761719 97.785156 126.941406 97.613281 128.128906 97.5 C 129.316406 97.382812 130.507812 97.324219 131.703125 97.324219 C 132.894531 97.324219 134.085938 97.382812 135.273438 97.5 C 136.460938 97.613281 137.640625 97.785156 138.8125 98.015625 C 139.984375 98.246094 141.140625 98.53125 142.285156 98.871094 C 143.425781 99.214844 144.550781 99.609375 145.65625 100.058594 C 146.761719 100.511719 147.839844 101.011719 148.898438 101.566406 C 149.953125 102.121094 150.980469 102.726562 151.976562 103.382812 C 152.976562 104.035156 153.9375 104.738281 154.867188 105.484375 C 155.796875 106.230469 156.6875 107.023438 157.542969 107.855469 C 158.394531 108.691406 159.203125 109.5625 159.972656 110.476562 C 160.738281 111.386719 161.460938 112.335938 162.136719 113.316406 C 162.8125 114.300781 163.441406 115.3125 164.015625 116.355469 C 164.59375 117.398438 165.121094 118.464844 165.59375 119.558594 C 166.066406 120.652344 166.488281 121.765625 166.851562 122.902344 C 167.21875 124.035156 167.527344 125.183594 167.78125 126.347656 C 168.035156 127.511719 168.234375 128.6875 168.371094 129.871094 C 168.511719 131.054688 168.59375 132.242188 168.621094 133.433594 C 168.621094 134.515625 168.621094 135.570312 168.460938 136.574219 L 170.035156 136.574219 C 170.128906 135.523438 170.195312 134.46875 170.195312 133.433594 C 170.167969 132.191406 170.082031 130.953125 169.9375 129.71875 C 169.792969 128.484375 169.585938 127.257812 169.324219 126.042969 C 169.058594 124.828125 168.734375 123.632812 168.355469 122.449219 C 167.972656 121.265625 167.535156 120.101562 167.042969 118.960938 C 166.550781 117.820312 166 116.707031 165.398438 115.621094 C 164.796875 114.53125 164.144531 113.476562 163.441406 112.453125 C 162.734375 111.425781 161.984375 110.4375 161.183594 109.488281 C 160.382812 108.535156 159.539062 107.625 158.648438 106.753906 C 157.757812 105.886719 156.832031 105.0625 155.859375 104.28125 C 154.890625 103.5 153.886719 102.769531 152.847656 102.085938 C 151.808594 101.40625 150.738281 100.773438 149.636719 100.195312 C 148.535156 99.617188 147.40625 99.09375 146.253906 98.621094 C 145.101562 98.152344 143.929688 97.738281 142.738281 97.382812 C 141.546875 97.027344 140.339844 96.730469 139.117188 96.488281 C 137.894531 96.25 136.664062 96.070312 135.425781 95.949219 C 134.1875 95.832031 132.945312 95.769531 131.703125 95.769531 C 130.457031 95.769531 129.214844 95.832031 127.976562 95.949219 C 126.738281 96.070312 125.507812 96.25 124.285156 96.488281 C 123.0625 96.730469 121.859375 97.027344 120.664062 97.382812 C 119.472656 97.738281 118.300781 98.152344 117.148438 98.621094 C 115.996094 99.09375 114.867188 99.617188 113.765625 100.195312 C 112.664062 100.773438 111.59375 101.40625 110.554688 102.085938 C 109.515625 102.769531 108.511719 103.5 107.542969 104.28125 C 106.570312 105.0625 105.644531 105.886719 104.753906 106.753906 C 103.863281 107.625 103.019531 108.535156 102.21875 109.488281 C 101.417969 110.4375 100.667969 111.425781 99.960938 112.453125 C 99.257812 113.476562 98.605469 114.53125 98.003906 115.621094 C 97.402344 116.707031 96.851562 117.820312 96.359375 118.960938 C 95.867188 120.101562 95.429688 121.265625 95.046875 122.449219 C 94.667969 123.632812 94.34375 124.828125 94.078125 126.042969 C 93.816406 127.257812 93.609375 128.484375 93.464844 129.71875 C 93.320312 130.953125 93.234375 132.191406 93.207031 133.433594 C 93.207031 134.515625 93.207031 135.570312 93.351562 136.574219 L 94.925781 136.574219 C 94.847656 135.570312 94.78125 134.515625 94.78125 133.433594 Z M 94.78125 133.433594 " fill-opacity="1" fill-rule="nonzero"/><path fill="#005b0f" d="M 160.449219 133.433594 C 160.449219 132.492188 160.40625 131.554688 160.3125 130.617188 C 160.21875 129.683594 160.082031 128.753906 159.898438 127.832031 C 159.714844 126.910156 159.484375 125.996094 159.210938 125.097656 C 158.9375 124.199219 158.621094 123.3125 158.261719 122.445312 C 157.902344 121.574219 157.5 120.726562 157.054688 119.898438 C 156.609375 119.066406 156.128906 118.261719 155.605469 117.480469 C 155.082031 116.699219 154.519531 115.945312 153.921875 115.21875 C 153.324219 114.492188 152.695312 113.792969 152.027344 113.128906 C 151.363281 112.464844 150.664062 111.835938 149.9375 111.238281 C 149.207031 110.640625 148.453125 110.082031 147.671875 109.558594 C 146.886719 109.035156 146.078125 108.554688 145.25 108.109375 C 144.417969 107.667969 143.570312 107.265625 142.699219 106.90625 C 141.828125 106.546875 140.941406 106.230469 140.042969 105.957031 C 139.140625 105.683594 138.226562 105.457031 137.304688 105.273438 C 136.378906 105.089844 135.449219 104.949219 134.511719 104.859375 C 133.574219 104.765625 132.636719 104.71875 131.695312 104.71875 C 130.75 104.71875 129.8125 104.765625 128.875 104.859375 C 127.9375 104.949219 127.007812 105.089844 126.082031 105.273438 C 125.160156 105.457031 124.246094 105.683594 123.34375 105.957031 C 122.445312 106.230469 121.558594 106.546875 120.6875 106.90625 C 119.820312 107.265625 118.96875 107.667969 118.136719 108.109375 C 117.308594 108.554688 116.5 109.035156 115.714844 109.558594 C 114.933594 110.082031 114.179688 110.640625 113.449219 111.238281 C 112.722656 111.835938 112.023438 112.464844 111.359375 113.128906 C 110.691406 113.792969 110.0625 114.492188 109.464844 115.21875 C 108.867188 115.945312 108.304688 116.699219 107.78125 117.480469 C 107.257812 118.261719 106.777344 119.066406 106.332031 119.898438 C 105.886719 120.726562 105.484375 121.574219 105.125 122.445312 C 104.765625 123.3125 104.449219 124.199219 104.175781 125.097656 C 103.902344 125.996094 103.671875 126.910156 103.488281 127.832031 C 103.304688 128.753906 103.167969 129.683594 103.074219 130.617188 C 102.980469 131.554688 102.9375 132.492188 102.9375 133.433594 C 102.945312 134.484375 103.007812 135.53125 103.125 136.574219 L 160.261719 136.574219 C 160.386719 135.53125 160.449219 134.484375 160.449219 133.433594 Z M 160.449219 133.433594 " fill-opacity="1" fill-rule="nonzero"/><path fill="#ffffff" d="M 103.722656 133.433594 C 103.722656 132.515625 103.765625 131.605469 103.855469 130.695312 C 103.945312 129.785156 104.078125 128.878906 104.257812 127.980469 C 104.4375 127.085938 104.660156 126.199219 104.925781 125.324219 C 105.191406 124.445312 105.5 123.585938 105.847656 122.742188 C 106.199219 121.894531 106.589844 121.070312 107.023438 120.261719 C 107.453125 119.457031 107.921875 118.671875 108.433594 117.910156 C 108.941406 117.148438 109.484375 116.414062 110.066406 115.707031 C 110.648438 115 111.261719 114.324219 111.910156 113.675781 C 112.558594 113.03125 113.238281 112.414062 113.945312 111.835938 C 114.652344 111.253906 115.386719 110.710938 116.148438 110.203125 C 116.910156 109.695312 117.695312 109.222656 118.503906 108.792969 C 119.3125 108.359375 120.140625 107.96875 120.988281 107.621094 C 121.832031 107.269531 122.695312 106.960938 123.570312 106.695312 C 124.449219 106.429688 125.335938 106.207031 126.234375 106.03125 C 127.132812 105.851562 128.039062 105.71875 128.949219 105.628906 C 129.863281 105.539062 130.777344 105.492188 131.695312 105.492188 C 132.609375 105.492188 133.523438 105.539062 134.4375 105.628906 C 135.347656 105.71875 136.253906 105.851562 137.152344 106.03125 C 138.050781 106.207031 138.9375 106.429688 139.816406 106.695312 C 140.691406 106.960938 141.554688 107.269531 142.398438 107.621094 C 143.246094 107.96875 144.074219 108.359375 144.882812 108.792969 C 145.691406 109.222656 146.476562 109.695312 147.238281 110.203125 C 148 110.710938 148.734375 111.253906 149.441406 111.835938 C 150.148438 112.414062 150.828125 113.03125 151.476562 113.675781 C 152.125 114.324219 152.738281 115 153.320312 115.707031 C 153.902344 116.414062 154.445312 117.148438 154.953125 117.910156 C 155.464844 118.671875 155.933594 119.457031 156.367188 120.261719 C 156.796875 121.070312 157.1875 121.894531 157.539062 122.742188 C 157.890625 123.585938 158.195312 124.445312 158.460938 125.324219 C 158.726562 126.199219 158.949219 127.085938 159.128906 127.980469 C 159.308594 128.878906 159.441406 129.785156 159.53125 130.695312 C 159.621094 131.605469 159.664062 132.515625 159.664062 133.433594 C 159.664062 134.484375 159.601562 135.53125 159.476562 136.574219 L 161.046875 136.574219 C 161.160156 135.53125 161.21875 134.484375 161.222656 133.433594 C 161.222656 132.464844 161.175781 131.503906 161.078125 130.539062 C 160.984375 129.578125 160.84375 128.625 160.652344 127.675781 C 160.464844 126.730469 160.230469 125.792969 159.949219 124.871094 C 159.667969 123.945312 159.34375 123.035156 158.972656 122.144531 C 158.601562 121.25 158.1875 120.378906 157.734375 119.527344 C 157.277344 118.675781 156.78125 117.847656 156.242188 117.042969 C 155.707031 116.242188 155.128906 115.464844 154.515625 114.71875 C 153.902344 113.972656 153.253906 113.257812 152.570312 112.574219 C 151.882812 111.890625 151.167969 111.242188 150.421875 110.628906 C 149.671875 110.015625 148.894531 109.441406 148.089844 108.90625 C 147.285156 108.371094 146.457031 107.875 145.605469 107.417969 C 144.75 106.960938 143.878906 106.550781 142.984375 106.179688 C 142.089844 105.808594 141.179688 105.484375 140.253906 105.203125 C 139.328125 104.925781 138.390625 104.691406 137.441406 104.5 C 136.492188 104.3125 135.535156 104.171875 134.574219 104.078125 C 133.609375 103.980469 132.644531 103.933594 131.675781 103.933594 C 130.710938 103.933594 129.746094 103.980469 128.78125 104.078125 C 127.820312 104.171875 126.863281 104.3125 125.914062 104.5 C 124.964844 104.691406 124.027344 104.925781 123.101562 105.203125 C 122.175781 105.484375 121.265625 105.808594 120.371094 106.179688 C 119.476562 106.550781 118.605469 106.960938 117.75 107.417969 C 116.898438 107.875 116.066406 108.371094 115.265625 108.90625 C 114.460938 109.441406 113.683594 110.015625 112.933594 110.628906 C 112.1875 111.242188 111.472656 111.890625 110.785156 112.574219 C 110.101562 113.257812 109.453125 113.972656 108.839844 114.71875 C 108.226562 115.464844 107.648438 116.242188 107.113281 117.042969 C 106.574219 117.847656 106.078125 118.675781 105.621094 119.527344 C 105.164062 120.378906 104.753906 121.25 104.382812 122.144531 C 104.011719 123.035156 103.6875 123.945312 103.40625 124.871094 C 103.125 125.792969 102.890625 126.730469 102.703125 127.675781 C 102.511719 128.625 102.371094 129.578125 102.277344 130.539062 C 102.179688 131.503906 102.132812 132.464844 102.132812 133.433594 C 102.140625 134.484375 102.207031 135.53125 102.324219 136.574219 L 103.894531 136.574219 C 103.777344 135.53125 103.71875 134.484375 103.722656 133.433594 Z M 103.722656 133.433594 " fill-opacity="1" fill-rule="nonzero"/><path fill="#ba9874" d="M 85.371094 29.917969 C 78.757812 29.289062 72.636719 33.40625 72.304688 36.972656 C 71.976562 40.539062 77.027344 41.355469 83.589844 41.96875 C 90.15625 42.582031 95.917969 42.773438 96.183594 39.203125 C 96.453125 35.636719 91.980469 30.53125 85.371094 29.917969 Z M 79.292969 33.167969 C 78.40625 33.617188 77.652344 34.234375 77.039062 35.019531 C 76.425781 35.800781 76.007812 36.679688 75.785156 37.648438 C 75.730469 38.054688 75.777344 38.445312 75.925781 38.828125 C 76.148438 39.457031 75.644531 39.597656 74.871094 38.828125 C 74.34375 38.304688 74.128906 37.675781 74.226562 36.941406 C 74.492188 34.113281 79.359375 30.84375 84.597656 31.332031 L 84.742188 31.332031 C 82.785156 31.53125 80.96875 32.144531 79.292969 33.167969 Z M 79.292969 33.167969 " fill-opacity="1" fill-rule="nonzero"/><path fill="#ba9874" d="M 81.5 42.597656 C 79.46875 46.132812 74.886719 48.886719 77.421875 51.855469 C 82.570312 57.84375 86.738281 50.519531 86.867188 45.851562 C 86.902344 44.917969 86.863281 43.984375 86.753906 43.054688 C 85.730469 43.054688 84.644531 42.914062 83.464844 42.804688 Z M 81.5 42.597656 " fill-opacity="1" fill-rule="nonzero"/><path fill="#57a52c" d="M 46.554688 33.972656 C 46.382812 34.242188 46.265625 34.535156 46.195312 34.847656 C 46.128906 35.164062 46.113281 35.480469 46.15625 35.796875 C 46.199219 36.117188 46.292969 36.417969 46.4375 36.703125 C 46.585938 36.988281 46.777344 37.242188 47.011719 37.460938 C 47.625 38.105469 48.128906 38.261719 48.066406 38.433594 C 48.003906 38.605469 47.328125 38.527344 46.492188 37.742188 C 46.1875 37.492188 45.9375 37.191406 45.746094 36.847656 C 45.554688 36.5 45.433594 36.132812 45.382812 35.738281 C 45.328125 35.347656 45.347656 34.960938 45.441406 34.578125 C 45.539062 34.191406 45.699219 33.839844 45.925781 33.515625 C 46.066406 33.316406 46.226562 33.132812 46.410156 32.96875 C 46.589844 32.800781 46.789062 32.660156 47 32.539062 C 47.214844 32.417969 47.4375 32.320312 47.671875 32.25 C 47.90625 32.175781 48.144531 32.132812 48.390625 32.113281 C 48.636719 32.09375 48.878906 32.101562 49.121094 32.136719 C 49.363281 32.171875 49.601562 32.234375 49.828125 32.320312 C 50.058594 32.40625 50.273438 32.519531 50.480469 32.65625 C 50.683594 32.789062 50.871094 32.945312 51.042969 33.121094 C 51.402344 34.222656 50.191406 35.402344 49.230469 34.867188 C 48.808594 34.722656 48.457031 34.480469 48.175781 34.136719 C 47.890625 33.796875 47.71875 33.40625 47.65625 32.964844 C 47.671875 32.535156 47.769531 32.121094 47.945312 31.730469 C 48.125 31.335938 48.371094 30.992188 48.6875 30.695312 C 49.003906 30.402344 49.363281 30.179688 49.769531 30.027344 C 50.175781 29.875 50.59375 29.808594 51.027344 29.824219 C 50.621094 29.84375 50.234375 29.9375 49.867188 30.105469 C 49.5 30.273438 49.179688 30.503906 48.902344 30.796875 C 48.621094 31.089844 48.40625 31.421875 48.257812 31.796875 C 48.109375 32.171875 48.035156 32.5625 48.035156 32.964844 C 48.035156 34.332031 50.726562 35.132812 50.378906 33.375 C 50.082031 33.171875 49.757812 33.03125 49.410156 32.953125 C 49.058594 32.875 48.703125 32.863281 48.347656 32.917969 C 47.996094 32.972656 47.660156 33.09375 47.351562 33.273438 C 47.042969 33.457031 46.777344 33.6875 46.554688 33.972656 Z M 46.554688 33.972656 " fill-opacity="1" fill-rule="nonzero"/><path fill="#57a52c" d="M 55.777344 45.523438 C 51.640625 41.78125 47.484375 37.664062 46.160156 36.234375 C 46.058594 36.675781 46.058594 37.113281 46.160156 37.554688 C 46.210938 37.753906 46.210938 37.953125 46.160156 38.152344 L 46.273438 38.261719 C 47.277344 40.03125 48.140625 41.871094 48.851562 43.777344 C 49.796875 45.835938 50.742188 47.910156 51.65625 49.984375 C 51.824219 50.34375 51.792969 50.683594 51.5625 51.007812 C 53.078125 52.230469 54.773438 53.121094 56.640625 53.679688 C 58.511719 54.238281 60.417969 54.417969 62.359375 54.226562 C 64.003906 54.039062 65.539062 53.515625 66.953125 52.65625 C 62.851562 50.867188 59.128906 48.488281 55.777344 45.523438 Z M 55.777344 45.523438 " fill-opacity="1" fill-rule="nonzero"/><path fill="#57a52c" d="M 45.691406 36.453125 C 45.574219 36.308594 45.472656 36.152344 45.390625 35.984375 C 45.390625 35.984375 45.390625 35.984375 45.3125 35.984375 L 45.59375 36.46875 Z M 45.691406 36.453125 " fill-opacity="1" fill-rule="nonzero"/><path fill="#57a52c" d="M 47.261719 40.429688 C 47.285156 40.648438 47.261719 40.859375 47.203125 41.070312 C 47.140625 41.277344 47.042969 41.46875 46.90625 41.636719 C 46.773438 41.808594 46.609375 41.949219 46.421875 42.058594 C 46.234375 42.167969 46.03125 42.238281 45.816406 42.269531 L 45.515625 42.269531 L 45.515625 43.070312 L 45.894531 42.945312 C 46.175781 42.84375 46.464844 42.808594 46.761719 42.828125 C 47.058594 42.851562 47.339844 42.929688 47.605469 43.070312 C 47.867188 43.210938 48.09375 43.394531 48.277344 43.628906 C 48.464844 43.859375 48.597656 44.121094 48.671875 44.410156 C 48.75 44.695312 48.765625 44.988281 48.722656 45.28125 C 48.675781 45.578125 48.574219 45.847656 48.414062 46.101562 C 48.253906 46.351562 48.054688 46.5625 47.804688 46.730469 C 47.558594 46.898438 47.289062 47.007812 46.996094 47.0625 C 46.699219 47.164062 46.394531 47.195312 46.082031 47.15625 C 46.082031 47.4375 46.226562 47.722656 46.304688 47.988281 C 46.574219 47.726562 46.894531 47.554688 47.261719 47.46875 C 47.527344 47.339844 47.808594 47.269531 48.105469 47.257812 C 48.398438 47.242188 48.683594 47.289062 48.960938 47.398438 C 49.238281 47.503906 49.480469 47.660156 49.691406 47.867188 C 49.898438 48.074219 50.058594 48.316406 50.167969 48.589844 C 50.28125 48.863281 50.328125 49.148438 50.320312 49.441406 C 50.3125 49.738281 50.242188 50.015625 50.117188 50.285156 C 49.992188 50.550781 49.816406 50.78125 49.59375 50.976562 C 49.371094 51.167969 49.121094 51.308594 48.835938 51.398438 C 48.507812 51.558594 48.164062 51.628906 47.796875 51.605469 C 47.929688 51.882812 48.078125 52.15625 48.238281 52.421875 C 48.449219 52.140625 48.710938 51.925781 49.027344 51.777344 C 49.273438 51.640625 49.539062 51.558594 49.816406 51.527344 C 50.097656 51.496094 50.375 51.519531 50.644531 51.597656 C 50.914062 51.679688 51.160156 51.804688 51.382812 51.980469 C 51.601562 52.160156 51.777344 52.371094 51.914062 52.617188 C 52.050781 52.863281 52.132812 53.128906 52.164062 53.40625 C 52.195312 53.6875 52.171875 53.960938 52.09375 54.234375 C 52.011719 54.503906 51.886719 54.75 51.707031 54.96875 C 51.53125 55.1875 51.320312 55.367188 51.074219 55.5 C 50.925781 55.59375 50.765625 55.667969 50.601562 55.722656 L 51.027344 56.238281 C 51.121094 56.128906 51.230469 56.035156 51.355469 55.957031 C 51.535156 55.832031 51.730469 55.746094 51.945312 55.699219 C 52.15625 55.648438 52.371094 55.640625 52.585938 55.675781 C 52.800781 55.710938 53 55.78125 53.1875 55.894531 C 53.375 56.003906 53.535156 56.144531 53.667969 56.316406 C 53.789062 56.496094 53.871094 56.691406 53.914062 56.902344 C 53.960938 57.113281 53.964844 57.324219 53.933594 57.535156 C 53.898438 57.746094 53.828125 57.945312 53.71875 58.132812 C 53.613281 58.316406 53.476562 58.476562 53.308594 58.613281 C 53.859375 59.144531 54.441406 59.636719 55.054688 60.089844 L 55.195312 60.183594 C 54.65625 55.925781 53.703125 51.761719 52.332031 47.691406 C 50.453125 43.84375 48.269531 40.175781 45.785156 36.691406 C 45.785156 37.160156 45.609375 37.996094 45.546875 39.078125 C 45.746094 39.070312 45.941406 39.097656 46.132812 39.160156 C 46.324219 39.222656 46.496094 39.316406 46.65625 39.4375 C 46.8125 39.5625 46.941406 39.710938 47.046875 39.878906 C 47.152344 40.050781 47.222656 40.234375 47.261719 40.429688 Z M 47.261719 40.429688 " fill-opacity="1" fill-rule="nonzero"/><path fill="#57a52c" d="M 45.40625 35.984375 C 44.621094 37.070312 43.980469 38.242188 43.492188 39.492188 C 43.003906 40.742188 42.675781 42.035156 42.515625 43.367188 C 42.355469 44.699219 42.363281 46.03125 42.542969 47.363281 C 42.71875 48.695312 43.058594 49.980469 43.566406 51.226562 C 46.886719 59.429688 55.589844 61.378906 55.480469 60.84375 C 55.179688 61.394531 48.253906 55.296875 46.601562 50.15625 C 44.164062 44.910156 45.21875 36.015625 45.46875 36.09375 Z M 45.40625 35.984375 " fill-opacity="1" fill-rule="nonzero"/><path fill="#57a52c" d="M 141.703125 42.046875 C 140.382812 43.972656 139.449219 46.066406 138.902344 48.335938 C 138.535156 49.75 138.21875 51.164062 137.957031 52.578125 C 137.363281 51.054688 137.085938 49.472656 137.132812 47.835938 C 137.179688 46.199219 137.542969 44.636719 138.226562 43.148438 C 139.558594 41.011719 141.304688 39.300781 143.46875 38.011719 C 143.832031 39.324219 144.003906 40.664062 143.980469 42.027344 C 143.957031 43.390625 143.738281 44.722656 143.324219 46.023438 C 142.914062 47.324219 142.324219 48.535156 141.558594 49.667969 C 140.792969 50.796875 139.878906 51.792969 138.824219 52.65625 C 139.011719 51.304688 139.234375 49.953125 139.515625 48.601562 C 139.972656 46.328125 140.703125 44.144531 141.703125 42.046875 Z M 141.703125 42.046875 " fill-opacity="1" fill-rule="nonzero"/><path fill="#a4c52c" d="M 127.238281 43.699219 C 129.167969 45.996094 130.675781 48.539062 131.757812 51.335938 C 132.464844 53.050781 133.046875 54.808594 133.597656 56.570312 C 133.980469 55.53125 134.230469 54.457031 134.347656 53.355469 C 134.464844 52.253906 134.445312 51.15625 134.289062 50.058594 C 134.132812 48.960938 133.84375 47.898438 133.421875 46.875 C 133.003906 45.847656 132.460938 44.890625 131.804688 43.996094 C 130.8125 42.800781 129.65625 41.792969 128.339844 40.964844 C 127.027344 40.136719 125.613281 39.535156 124.105469 39.15625 C 123.308594 41.992188 123.308594 44.824219 124.105469 47.660156 C 124.429688 48.679688 124.863281 49.652344 125.40625 50.578125 C 125.949219 51.503906 126.585938 52.355469 127.316406 53.140625 C 128.050781 53.921875 128.859375 54.617188 129.746094 55.21875 C 130.632812 55.820312 131.578125 56.316406 132.574219 56.710938 C 132.164062 54.980469 131.726562 53.285156 131.175781 51.621094 C 130.308594 48.757812 129 46.117188 127.238281 43.699219 Z M 127.238281 43.699219 " fill-opacity="1" fill-rule="nonzero"/><path fill="#a4c52c" d="M 56.15625 21.652344 C 57.941406 22.96875 59.46875 24.542969 60.738281 26.363281 C 61.539062 27.464844 62.3125 28.644531 62.972656 29.824219 C 63.070312 29.003906 63.066406 28.1875 62.960938 27.371094 C 62.855469 26.554688 62.648438 25.761719 62.347656 24.996094 C 62.042969 24.230469 61.648438 23.515625 61.167969 22.847656 C 60.683594 22.179688 60.125 21.582031 59.492188 21.054688 C 57.597656 19.640625 55.46875 18.921875 53.101562 18.902344 C 53 21.082031 53.476562 23.132812 54.535156 25.046875 C 55.367188 26.421875 56.457031 27.554688 57.804688 28.441406 C 59.148438 29.328125 60.621094 29.882812 62.214844 30.105469 C 61.644531 28.929688 61.015625 27.789062 60.328125 26.679688 C 59.210938 24.777344 57.820312 23.097656 56.15625 21.652344 Z M 56.15625 21.652344 " fill-opacity="1" fill-rule="nonzero"/><path fill="#157a2c" d="M 69.300781 25.847656 C 68.320312 27.316406 67.667969 28.917969 67.347656 30.65625 C 67.128906 31.769531 67.191406 33.167969 67.082031 34.300781 C 66.714844 33.71875 66.421875 33.101562 66.210938 32.445312 C 66 31.792969 65.875 31.121094 65.832031 30.433594 C 65.789062 29.75 65.832031 29.066406 65.960938 28.390625 C 66.089844 27.714844 66.300781 27.066406 66.59375 26.445312 C 67.542969 24.800781 68.878906 23.585938 70.605469 22.796875 C 71.441406 24.394531 71.808594 26.089844 71.707031 27.890625 C 71.550781 29.199219 71.125 30.414062 70.429688 31.535156 C 69.734375 32.660156 68.832031 33.578125 67.726562 34.300781 C 67.726562 33.21875 67.820312 32.132812 67.929688 31.0625 C 68.101562 29.25 68.558594 27.511719 69.300781 25.847656 Z M 69.300781 25.847656 " fill-opacity="1" fill-rule="nonzero"/><path fill="#ffffff" d="M 58.359375 88.359375 C 58.875 87.464844 59.148438 86.496094 59.183594 85.464844 C 59.222656 84.429688 59.015625 83.445312 58.566406 82.515625 C 57.945312 81.492188 57.128906 80.652344 56.125 80 C 53.199219 77.957031 49.65625 76.984375 46.679688 74.988281 C 44.589844 73.574219 42.914062 71.769531 41.660156 69.582031 C 41.433594 69.105469 41.132812 68.683594 40.761719 68.308594 C 40.570312 68.121094 40.34375 68.003906 40.078125 67.957031 C 39.816406 67.90625 39.5625 67.933594 39.316406 68.042969 C 39.117188 68.167969 38.964844 68.339844 38.859375 68.550781 C 38.753906 68.761719 38.710938 68.984375 38.734375 69.21875 C 38.769531 69.6875 38.902344 70.128906 39.125 70.539062 C 40.773438 74.347656 43.066406 77.714844 46.003906 80.644531 C 47.972656 82.53125 50.300781 84.242188 51.183594 86.804688 C 51.496094 87.699219 51.609375 88.660156 51.859375 89.570312 C 52.269531 91.046875 53.132812 92.621094 54.820312 91.820312 C 56.375 91.050781 57.554688 89.898438 58.359375 88.359375 Z M 58.359375 88.359375 " fill-opacity="1" fill-rule="nonzero"/><path fill="#7f3068" d="M 54.238281 77.878906 C 51.625 76.601562 49.136719 75.113281 46.777344 73.417969 C 45.554688 72.484375 44.441406 71.4375 43.4375 70.273438 C 42.746094 69.472656 41.992188 68.558594 41.171875 67.710938 C 40.730469 67.902344 40.273438 68.050781 39.804688 68.152344 C 40.589844 68.90625 41.375 69.722656 42.054688 70.570312 L 42.496094 71.089844 C 43.554688 72.300781 44.726562 73.398438 46.003906 74.375 C 48.347656 76.054688 50.816406 77.53125 53.402344 78.804688 L 53.652344 78.933594 C 59.351562 81.933594 58.800781 84.917969 57.902344 86.898438 C 57.230469 88.503906 56.234375 89.878906 54.914062 91.015625 C 55.453125 90.34375 55.917969 89.628906 56.3125 88.863281 C 57.398438 86.835938 58.171875 83.726562 52.363281 80.171875 L 52.113281 80.03125 C 49.460938 78.519531 46.957031 76.792969 44.601562 74.847656 C 43.304688 73.742188 42.140625 72.511719 41.109375 71.152344 L 40.683594 70.570312 C 40.117188 69.832031 39.503906 69 38.859375 68.277344 L 38.402344 68.277344 C 38.667969 69.207031 38.722656 70.152344 38.574219 71.105469 L 38.449219 71.9375 L 37.644531 71.671875 C 36.191406 71.175781 34.816406 70.515625 33.523438 69.691406 C 33.378906 70.347656 33.109375 70.949219 32.714844 71.496094 C 32.320312 72.042969 31.835938 72.488281 31.257812 72.835938 C 31.550781 75.285156 32.164062 77.65625 33.09375 79.945312 C 34.027344 82.234375 35.246094 84.355469 36.75 86.316406 C 41.660156 92.273438 53.605469 99.265625 59.054688 87.371094 C 61.144531 82.859375 58.046875 79.875 54.238281 77.878906 Z M 54.238281 77.878906 " fill-opacity="1" fill-rule="nonzero"/><path fill="#157a2c" d="M 41.457031 66.800781 C 39.902344 65.054688 38 63.882812 35.742188 63.28125 C 34.355469 62.996094 33.207031 62.652344 32.84375 61.394531 L 31.273438 62.117188 C 31.582031 62.6875 31.730469 63.300781 31.714844 63.953125 C 31.695312 64.605469 31.519531 65.207031 31.175781 65.761719 C 30.753906 66.703125 30.503906 67.6875 30.421875 68.71875 C 30.472656 69.925781 30.636719 71.121094 30.910156 72.300781 C 31.585938 71.84375 32.121094 71.253906 32.507812 70.535156 C 32.894531 69.816406 33.089844 69.046875 33.097656 68.230469 C 33.097656 69.15625 37.109375 70.839844 37.898438 71.089844 C 38.050781 70.382812 38.039062 69.679688 37.859375 68.980469 C 37.679688 68.28125 37.351562 67.660156 36.875 67.113281 C 37.820312 68.152344 40.402344 67.492188 41.457031 66.800781 Z M 41.457031 66.800781 " fill-opacity="1" fill-rule="nonzero"/><g clip-path="url(#a190d32c46)"><path fill="#157a2c" d="M 112.867188 19.230469 C 113.90625 18.742188 117.589844 17.941406 116.820312 16.449219 C 115.78125 14.546875 111.308594 17.25 110.382812 18.160156 C 109.058594 15.539062 110.871094 13.101562 110.097656 10.617188 C 108.902344 6.832031 105 9.046875 105.09375 12.441406 C 101.332031 7.082031 94.027344 12.078125 99.207031 15.441406 C 102.007812 17.25 103.535156 16.199219 106.429688 17.390625 C 106.882812 17.550781 107.296875 17.773438 107.679688 18.058594 C 108.0625 18.34375 108.394531 18.679688 108.675781 19.0625 C 108.957031 19.449219 109.175781 19.867188 109.328125 20.320312 C 109.484375 20.773438 109.566406 21.238281 109.578125 21.714844 C 109.679688 21.699219 109.777344 21.699219 109.878906 21.714844 C 110.792969 21.890625 111.625 22.25 112.378906 22.796875 C 113.503906 22.597656 114.636719 22.488281 115.78125 22.46875 C 121.621094 21.933594 116.378906 18.964844 112.867188 19.230469 Z M 112.867188 19.230469 " fill-opacity="1" fill-rule="nonzero"/></g><path fill="#7f3068" d="M 110.429688 21.382812 C 109.96875 21.21875 109.5 21.105469 109.019531 21.035156 C 108.539062 20.964844 108.054688 20.941406 107.570312 20.964844 C 107.082031 20.992188 106.605469 21.0625 106.132812 21.183594 C 105.660156 21.304688 105.207031 21.46875 104.765625 21.679688 C 104.328125 21.886719 103.914062 22.136719 103.523438 22.429688 C 103.136719 22.71875 102.777344 23.046875 102.453125 23.410156 C 102.128906 23.769531 101.84375 24.160156 101.597656 24.578125 C 101.347656 24.996094 101.144531 25.433594 100.984375 25.894531 C 99.410156 31.207031 105.484375 32.980469 104.621094 39.925781 C 107.546875 33.910156 114.066406 36.265625 115.796875 30.292969 C 115.910156 29.824219 115.976562 29.351562 116 28.867188 C 116.019531 28.386719 115.996094 27.90625 115.921875 27.429688 C 115.851562 26.953125 115.730469 26.488281 115.566406 26.035156 C 115.402344 25.582031 115.199219 25.148438 114.949219 24.734375 C 114.699219 24.324219 114.414062 23.9375 114.089844 23.582031 C 113.765625 23.222656 113.410156 22.902344 113.019531 22.613281 C 112.632812 22.324219 112.222656 22.078125 111.785156 21.871094 C 111.347656 21.664062 110.898438 21.503906 110.429688 21.382812 Z M 102.039062 27.261719 C 101.914062 27.675781 101.84375 28.101562 101.820312 28.535156 C 101.65625 27.730469 101.695312 26.941406 101.945312 26.160156 C 102.089844 25.761719 102.269531 25.378906 102.488281 25.015625 C 102.707031 24.652344 102.960938 24.316406 103.246094 24 C 103.53125 23.6875 103.84375 23.40625 104.1875 23.152344 C 104.53125 22.902344 104.894531 22.6875 105.277344 22.507812 C 105.664062 22.328125 106.0625 22.1875 106.472656 22.085938 C 106.886719 21.984375 107.304688 21.925781 107.730469 21.90625 C 108.152344 21.890625 108.578125 21.914062 108.996094 21.976562 C 109.414062 22.042969 109.824219 22.148438 110.222656 22.292969 C 110.722656 22.441406 111.199219 22.640625 111.65625 22.890625 C 107.34375 21.792969 103.09375 23.710938 102.039062 27.261719 Z M 102.039062 27.261719 " fill-opacity="1" fill-rule="nonzero"/><path fill="#f68820" d="M 13.832031 109.765625 L 177.183594 109.765625 C 177.449219 109.765625 177.714844 109.792969 177.972656 109.84375 C 178.234375 109.894531 178.488281 109.972656 178.734375 110.074219 C 178.984375 110.175781 179.214844 110.300781 179.4375 110.449219 C 179.660156 110.597656 179.863281 110.765625 180.054688 110.953125 C 180.242188 111.140625 180.410156 111.34375 180.558594 111.566406 C 180.707031 111.789062 180.832031 112.023438 180.933594 112.269531 C 181.035156 112.515625 181.113281 112.765625 181.164062 113.027344 C 181.21875 113.289062 181.242188 113.554688 181.242188 113.820312 L 181.242188 172.296875 L 13.832031 172.296875 Z M 13.832031 109.765625 " fill-opacity="1" fill-rule="nonzero"/><path fill="#c6c6c6" d="M 285.882812 182.605469 L 12.933594 182.605469 L 12.933594 168.632812 L 171.609375 168.632812 L 171.609375 84.273438 L 220.609375 84.273438 C 221.640625 84.273438 222.648438 84.414062 223.640625 84.703125 C 224.628906 84.992188 225.554688 85.417969 226.421875 85.972656 C 227.289062 86.53125 228.054688 87.203125 228.726562 87.980469 C 229.398438 88.761719 229.945312 89.621094 230.367188 90.5625 L 242.628906 118.660156 C 255.90625 122.226562 268.328125 127.726562 279.886719 135.160156 C 280.875 135.792969 281.769531 136.535156 282.570312 137.390625 C 283.371094 138.246094 284.054688 139.1875 284.621094 140.214844 C 285.183594 141.242188 285.609375 142.320312 285.902344 143.457031 C 286.195312 144.589844 286.339844 145.746094 286.339844 146.914062 L 286.339844 165.773438 Z M 285.882812 182.605469 " fill-opacity="1" fill-rule="nonzero"/><path fill="#ffffff" d="M 277.070312 160.023438 C 277.070312 160.496094 277.113281 160.96875 277.199219 161.4375 C 277.285156 161.90625 277.414062 162.359375 277.585938 162.804688 C 277.757812 163.25 277.96875 163.671875 278.21875 164.078125 C 278.46875 164.480469 278.753906 164.859375 279.074219 165.214844 C 279.394531 165.566406 279.746094 165.886719 280.125 166.171875 C 280.503906 166.460938 280.90625 166.710938 281.332031 166.921875 C 281.757812 167.136719 282.203125 167.308594 282.660156 167.441406 C 283.117188 167.574219 283.582031 167.660156 284.058594 167.707031 L 284.058594 152.304688 C 283.582031 152.351562 283.117188 152.445312 282.65625 152.578125 C 282.199219 152.710938 281.757812 152.882812 281.332031 153.097656 C 280.90625 153.3125 280.503906 153.566406 280.121094 153.855469 C 279.742188 154.144531 279.394531 154.464844 279.074219 154.820312 C 278.753906 155.171875 278.46875 155.550781 278.21875 155.957031 C 277.96875 156.363281 277.757812 156.789062 277.585938 157.234375 C 277.414062 157.679688 277.285156 158.136719 277.199219 158.605469 C 277.113281 159.074219 277.070312 159.546875 277.070312 160.023438 Z M 277.070312 160.023438 " fill-opacity="1" fill-rule="nonzero"/><path fill="#ffffff" d="M 223.742188 93.515625 C 223.464844 92.890625 223.042969 92.390625 222.472656 92.011719 C 221.902344 91.632812 221.277344 91.4375 220.59375 91.425781 L 178.675781 91.425781 L 178.675781 123.5625 L 226.8125 123.5625 L 232.839844 114.132812 Z M 223.742188 93.515625 " fill-opacity="1" fill-rule="nonzero"/><path fill="#54381c" d="M 11.957031 165.726562 L 287.992188 165.726562 C 288.320312 165.726562 288.636719 165.789062 288.9375 165.914062 C 289.242188 166.039062 289.507812 166.21875 289.738281 166.449219 C 289.972656 166.679688 290.148438 166.949219 290.277344 167.25 C 290.402344 167.550781 290.464844 167.867188 290.464844 168.195312 L 290.464844 180.136719 C 290.464844 180.464844 290.402344 180.777344 290.277344 181.082031 C 290.148438 181.382812 289.972656 181.652344 289.738281 181.882812 C 289.507812 182.113281 289.242188 182.292969 288.9375 182.417969 C 288.636719 182.542969 288.320312 182.605469 287.992188 182.605469 L 11.957031 182.605469 C 11.628906 182.605469 11.316406 182.542969 11.011719 182.417969 C 10.710938 182.292969 10.441406 182.113281 10.210938 181.882812 C 9.980469 181.652344 9.800781 181.382812 9.675781 181.082031 C 9.550781 180.777344 9.488281 180.464844 9.488281 180.136719 L 9.488281 168.195312 C 9.488281 167.867188 9.550781 167.550781 9.675781 167.25 C 9.800781 166.949219 9.980469 166.679688 10.210938 166.449219 C 10.441406 166.21875 10.710938 166.039062 11.011719 165.914062 C 11.316406 165.789062 11.628906 165.726562 11.957031 165.726562 Z M 11.957031 165.726562 " fill-opacity="1" fill-rule="nonzero"/><path fill="#c6c6c6" d="M 248.738281 153.375 C 247.96875 153.375 247.203125 153.410156 246.4375 153.484375 C 245.675781 153.554688 244.914062 153.65625 244.160156 153.796875 C 243.40625 153.933594 242.660156 154.105469 241.921875 154.3125 C 241.179688 154.519531 240.453125 154.757812 239.734375 155.027344 C 239.015625 155.300781 238.3125 155.601562 237.621094 155.9375 C 236.933594 156.269531 236.257812 156.636719 235.601562 157.03125 C 234.945312 157.425781 234.304688 157.851562 233.6875 158.300781 C 233.066406 158.753906 232.46875 159.234375 231.894531 159.738281 C 231.316406 160.246094 230.765625 160.777344 230.234375 161.332031 C 229.707031 161.890625 229.207031 162.46875 228.730469 163.066406 C 228.253906 163.667969 227.804688 164.289062 227.386719 164.929688 C 226.964844 165.570312 226.574219 166.230469 226.214844 166.90625 C 225.855469 167.582031 225.523438 168.273438 225.226562 168.980469 C 224.925781 169.6875 224.660156 170.402344 224.425781 171.132812 C 224.195312 171.863281 223.992188 172.601562 223.824219 173.351562 C 223.660156 174.097656 223.527344 174.851562 223.425781 175.613281 L 274.046875 175.613281 C 273.949219 174.851562 273.816406 174.097656 273.648438 173.351562 C 273.480469 172.601562 273.28125 171.863281 273.046875 171.132812 C 272.8125 170.402344 272.546875 169.6875 272.246094 168.980469 C 271.949219 168.273438 271.621094 167.582031 271.257812 166.90625 C 270.898438 166.230469 270.507812 165.570312 270.085938 164.929688 C 269.667969 164.289062 269.21875 163.667969 268.742188 163.066406 C 268.265625 162.46875 267.765625 161.890625 267.238281 161.332031 C 266.707031 160.777344 266.15625 160.246094 265.582031 159.738281 C 265.003906 159.234375 264.40625 158.753906 263.789062 158.300781 C 263.167969 157.851562 262.53125 157.425781 261.871094 157.03125 C 261.214844 156.636719 260.539062 156.269531 259.851562 155.9375 C 259.160156 155.601562 258.457031 155.300781 257.738281 155.027344 C 257.019531 154.757812 256.292969 154.519531 255.554688 154.3125 C 254.8125 154.105469 254.066406 153.933594 253.3125 153.796875 C 252.558594 153.65625 251.796875 153.554688 251.035156 153.484375 C 250.269531 153.410156 249.503906 153.375 248.738281 153.375 Z M 248.738281 153.375 " fill-opacity="1" fill-rule="nonzero"/><g clip-path="url(#9f79fc08ab)"><path fill="#54381c" d="M 272.03125 178.878906 C 272.03125 179.640625 271.996094 180.402344 271.917969 181.160156 C 271.84375 181.921875 271.734375 182.671875 271.585938 183.421875 C 271.433594 184.167969 271.25 184.90625 271.027344 185.636719 C 270.808594 186.367188 270.550781 187.082031 270.257812 187.785156 C 269.964844 188.492188 269.640625 189.179688 269.28125 189.851562 C 268.917969 190.523438 268.527344 191.175781 268.101562 191.808594 C 267.679688 192.445312 267.226562 193.054688 266.742188 193.644531 C 266.257812 194.234375 265.746094 194.796875 265.203125 195.335938 C 264.664062 195.875 264.097656 196.386719 263.507812 196.871094 C 262.917969 197.355469 262.308594 197.808594 261.671875 198.230469 C 261.035156 198.65625 260.382812 199.046875 259.710938 199.40625 C 259.035156 199.765625 258.347656 200.089844 257.640625 200.382812 C 256.9375 200.675781 256.21875 200.929688 255.488281 201.152344 C 254.757812 201.375 254.015625 201.558594 253.269531 201.707031 C 252.519531 201.855469 251.765625 201.96875 251.007812 202.042969 C 250.246094 202.117188 249.484375 202.152344 248.722656 202.152344 C 247.957031 202.152344 247.195312 202.117188 246.4375 202.042969 C 245.675781 201.96875 244.921875 201.855469 244.171875 201.707031 C 243.425781 201.558594 242.683594 201.375 241.953125 201.152344 C 241.222656 200.929688 240.503906 200.675781 239.800781 200.382812 C 239.09375 200.089844 238.40625 199.765625 237.730469 199.40625 C 237.058594 199.046875 236.40625 198.65625 235.769531 198.230469 C 235.136719 197.808594 234.523438 197.355469 233.933594 196.871094 C 233.34375 196.386719 232.777344 195.875 232.238281 195.335938 C 231.699219 194.796875 231.1875 194.234375 230.703125 193.644531 C 230.21875 193.054688 229.761719 192.445312 229.339844 191.808594 C 228.914062 191.175781 228.523438 190.523438 228.164062 189.851562 C 227.800781 189.179688 227.476562 188.492188 227.183594 187.785156 C 226.890625 187.082031 226.636719 186.367188 226.414062 185.636719 C 226.191406 184.90625 226.007812 184.167969 225.859375 183.421875 C 225.707031 182.671875 225.597656 181.921875 225.523438 181.160156 C 225.449219 180.402344 225.410156 179.640625 225.410156 178.878906 C 225.410156 178.117188 225.449219 177.359375 225.523438 176.597656 C 225.597656 175.839844 225.707031 175.085938 225.859375 174.339844 C 226.007812 173.59375 226.191406 172.851562 226.414062 172.125 C 226.636719 171.394531 226.890625 170.675781 227.183594 169.972656 C 227.476562 169.269531 227.800781 168.582031 228.164062 167.910156 C 228.523438 167.238281 228.914062 166.582031 229.339844 165.949219 C 229.761719 165.316406 230.21875 164.703125 230.703125 164.113281 C 231.1875 163.527344 231.699219 162.960938 232.238281 162.421875 C 232.777344 161.882812 233.34375 161.371094 233.933594 160.890625 C 234.523438 160.40625 235.136719 159.953125 235.769531 159.527344 C 236.40625 159.105469 237.058594 158.714844 237.730469 158.355469 C 238.40625 157.996094 239.09375 157.667969 239.800781 157.378906 C 240.503906 157.085938 241.222656 156.828125 241.953125 156.609375 C 242.683594 156.386719 243.425781 156.203125 244.171875 156.054688 C 244.921875 155.90625 245.675781 155.792969 246.4375 155.71875 C 247.195312 155.644531 247.957031 155.605469 248.722656 155.605469 C 249.484375 155.605469 250.246094 155.644531 251.007812 155.71875 C 251.765625 155.792969 252.519531 155.90625 253.269531 156.054688 C 254.015625 156.203125 254.757812 156.386719 255.488281 156.609375 C 256.21875 156.828125 256.9375 157.085938 257.640625 157.378906 C 258.347656 157.667969 259.035156 157.996094 259.710938 158.355469 C 260.382812 158.714844 261.035156 159.105469 261.671875 159.527344 C 262.308594 159.953125 262.917969 160.40625 263.507812 160.890625 C 264.097656 161.371094 264.664062 161.882812 265.203125 162.421875 C 265.746094 162.960938 266.257812 163.527344 266.742188 164.113281 C 267.226562 164.703125 267.679688 165.316406 268.101562 165.949219 C 268.527344 166.582031 268.917969 167.238281 269.28125 167.910156 C 269.640625 168.582031 269.964844 169.269531 270.257812 169.972656 C 270.550781 170.675781 270.808594 171.394531 271.027344 172.125 C 271.25 172.851562 271.433594 173.59375 271.585938 174.339844 C 271.734375 175.085938 271.84375 175.839844 271.917969 176.597656 C 271.996094 177.359375 272.03125 178.117188 272.03125 178.878906 Z M 272.03125 178.878906 " fill-opacity="1" fill-rule="nonzero"/></g><path fill="#ffffff" d="M 258.039062 178.878906 C 258.039062 179.492188 257.980469 180.097656 257.859375 180.695312 C 257.742188 181.292969 257.5625 181.875 257.328125 182.441406 C 257.09375 183.003906 256.808594 183.539062 256.46875 184.046875 C 256.128906 184.558594 255.742188 185.027344 255.308594 185.457031 C 254.878906 185.890625 254.40625 186.277344 253.898438 186.617188 C 253.390625 186.953125 252.851562 187.242188 252.285156 187.476562 C 251.722656 187.710938 251.140625 187.886719 250.539062 188.003906 C 249.9375 188.125 249.332031 188.183594 248.722656 188.183594 C 248.109375 188.183594 247.503906 188.125 246.902344 188.003906 C 246.304688 187.886719 245.71875 187.710938 245.15625 187.476562 C 244.589844 187.242188 244.054688 186.953125 243.542969 186.617188 C 243.035156 186.277344 242.566406 185.890625 242.132812 185.457031 C 241.699219 185.027344 241.3125 184.558594 240.972656 184.046875 C 240.632812 183.539062 240.347656 183.003906 240.113281 182.441406 C 239.878906 181.875 239.703125 181.292969 239.582031 180.695312 C 239.460938 180.097656 239.402344 179.492188 239.402344 178.878906 C 239.402344 178.269531 239.460938 177.664062 239.582031 177.066406 C 239.703125 176.464844 239.878906 175.882812 240.113281 175.320312 C 240.347656 174.753906 240.632812 174.21875 240.972656 173.710938 C 241.3125 173.203125 241.699219 172.734375 242.132812 172.300781 C 242.566406 171.871094 243.035156 171.484375 243.542969 171.144531 C 244.054688 170.804688 244.589844 170.519531 245.15625 170.285156 C 245.71875 170.050781 246.304688 169.875 246.902344 169.753906 C 247.503906 169.636719 248.109375 169.578125 248.722656 169.578125 C 249.332031 169.578125 249.9375 169.636719 250.539062 169.753906 C 251.140625 169.875 251.722656 170.050781 252.285156 170.285156 C 252.851562 170.519531 253.390625 170.804688 253.898438 171.144531 C 254.40625 171.484375 254.878906 171.871094 255.308594 172.300781 C 255.742188 172.734375 256.128906 173.203125 256.46875 173.710938 C 256.808594 174.21875 257.09375 174.753906 257.328125 175.320312 C 257.5625 175.882812 257.742188 176.464844 257.859375 177.066406 C 257.980469 177.664062 258.039062 178.269531 258.039062 178.878906 Z M 258.039062 178.878906 " fill-opacity="1" fill-rule="nonzero"/><path fill="#c6c6c6" d="M 50.851562 153.375 C 50.085938 153.375 49.320312 153.410156 48.554688 153.484375 C 47.789062 153.554688 47.03125 153.65625 46.277344 153.796875 C 45.523438 153.933594 44.773438 154.105469 44.035156 154.3125 C 43.296875 154.519531 42.566406 154.757812 41.851562 155.027344 C 41.132812 155.300781 40.429688 155.601562 39.738281 155.9375 C 39.046875 156.269531 38.375 156.636719 37.714844 157.03125 C 37.058594 157.425781 36.421875 157.851562 35.800781 158.300781 C 35.183594 158.753906 34.585938 159.234375 34.007812 159.738281 C 33.433594 160.246094 32.878906 160.777344 32.351562 161.332031 C 31.824219 161.890625 31.320312 162.46875 30.84375 163.066406 C 30.371094 163.667969 29.921875 164.289062 29.5 164.929688 C 29.082031 165.570312 28.691406 166.230469 28.328125 166.90625 C 27.96875 167.582031 27.640625 168.273438 27.339844 168.980469 C 27.042969 169.6875 26.777344 170.402344 26.542969 171.132812 C 26.308594 171.863281 26.109375 172.601562 25.941406 173.351562 C 25.773438 174.097656 25.640625 174.851562 25.542969 175.613281 L 76.148438 175.613281 C 76.046875 174.851562 75.914062 174.097656 75.75 173.351562 C 75.582031 172.601562 75.382812 171.863281 75.152344 171.132812 C 74.917969 170.402344 74.652344 169.6875 74.355469 168.980469 C 74.054688 168.273438 73.726562 167.582031 73.367188 166.90625 C 73.007812 166.230469 72.617188 165.570312 72.199219 164.929688 C 71.777344 164.289062 71.332031 163.667969 70.855469 163.066406 C 70.378906 162.464844 69.875 161.886719 69.347656 161.332031 C 68.820312 160.773438 68.269531 160.242188 67.691406 159.738281 C 67.117188 159.230469 66.519531 158.753906 65.902344 158.300781 C 65.28125 157.847656 64.644531 157.421875 63.984375 157.027344 C 63.328125 156.632812 62.65625 156.269531 61.964844 155.933594 C 61.273438 155.597656 60.570312 155.296875 59.851562 155.027344 C 59.136719 154.753906 58.40625 154.515625 57.667969 154.308594 C 56.929688 154.105469 56.183594 153.933594 55.425781 153.792969 C 54.671875 153.65625 53.914062 153.550781 53.148438 153.480469 C 52.386719 153.410156 51.621094 153.375 50.851562 153.375 Z M 50.851562 153.375 " fill-opacity="1" fill-rule="nonzero"/><g clip-path="url(#9e176f2363)"><path fill="#54381c" d="M 74.164062 178.878906 C 74.164062 179.640625 74.125 180.402344 74.050781 181.160156 C 73.976562 181.921875 73.863281 182.671875 73.714844 183.421875 C 73.566406 184.167969 73.382812 184.90625 73.160156 185.636719 C 72.9375 186.367188 72.679688 187.082031 72.390625 187.785156 C 72.097656 188.492188 71.769531 189.179688 71.410156 189.851562 C 71.050781 190.523438 70.660156 191.175781 70.234375 191.808594 C 69.8125 192.445312 69.355469 193.054688 68.871094 193.644531 C 68.386719 194.234375 67.875 194.796875 67.335938 195.335938 C 66.796875 195.875 66.230469 196.386719 65.640625 196.871094 C 65.050781 197.355469 64.4375 197.808594 63.804688 198.230469 C 63.167969 198.65625 62.515625 199.046875 61.839844 199.40625 C 61.167969 199.765625 60.476562 200.089844 59.773438 200.382812 C 59.066406 200.675781 58.351562 200.929688 57.621094 201.152344 C 56.886719 201.375 56.148438 201.558594 55.398438 201.707031 C 54.652344 201.855469 53.898438 201.96875 53.136719 202.042969 C 52.378906 202.117188 51.617188 202.152344 50.851562 202.152344 C 50.089844 202.152344 49.328125 202.117188 48.566406 202.042969 C 47.808594 201.96875 47.054688 201.855469 46.304688 201.707031 C 45.554688 201.558594 44.816406 201.375 44.085938 201.152344 C 43.355469 200.929688 42.636719 200.675781 41.929688 200.382812 C 41.226562 200.089844 40.535156 199.765625 39.863281 199.40625 C 39.191406 199.046875 38.535156 198.65625 37.902344 198.230469 C 37.265625 197.808594 36.652344 197.355469 36.0625 196.871094 C 35.472656 196.386719 34.910156 195.875 34.367188 195.335938 C 33.828125 194.796875 33.316406 194.234375 32.832031 193.644531 C 32.347656 193.054688 31.894531 192.445312 31.46875 191.808594 C 31.046875 191.175781 30.652344 190.523438 30.292969 189.851562 C 29.933594 189.179688 29.609375 188.492188 29.316406 187.785156 C 29.023438 187.082031 28.765625 186.367188 28.546875 185.636719 C 28.324219 184.90625 28.136719 184.167969 27.988281 183.421875 C 27.839844 182.671875 27.726562 181.921875 27.652344 181.160156 C 27.578125 180.402344 27.542969 179.640625 27.542969 178.878906 C 27.542969 178.117188 27.578125 177.359375 27.652344 176.597656 C 27.726562 175.839844 27.839844 175.085938 27.988281 174.339844 C 28.136719 173.59375 28.324219 172.851562 28.546875 172.125 C 28.765625 171.394531 29.023438 170.675781 29.316406 169.972656 C 29.609375 169.269531 29.933594 168.582031 30.292969 167.910156 C 30.652344 167.238281 31.046875 166.582031 31.46875 165.949219 C 31.894531 165.316406 32.347656 164.703125 32.832031 164.113281 C 33.316406 163.527344 33.828125 162.960938 34.367188 162.421875 C 34.910156 161.882812 35.472656 161.371094 36.0625 160.890625 C 36.652344 160.40625 37.265625 159.953125 37.902344 159.527344 C 38.535156 159.105469 39.191406 158.714844 39.863281 158.355469 C 40.535156 157.996094 41.226562 157.667969 41.929688 157.378906 C 42.636719 157.085938 43.355469 156.828125 44.085938 156.609375 C 44.816406 156.386719 45.554688 156.203125 46.304688 156.054688 C 47.054688 155.90625 47.808594 155.792969 48.566406 155.71875 C 49.328125 155.644531 50.089844 155.605469 50.851562 155.605469 C 51.617188 155.605469 52.378906 155.644531 53.136719 155.71875 C 53.898438 155.792969 54.652344 155.90625 55.398438 156.054688 C 56.148438 156.203125 56.886719 156.386719 57.621094 156.609375 C 58.351562 156.828125 59.066406 157.085938 59.773438 157.378906 C 60.476562 157.667969 61.167969 157.996094 61.839844 158.355469 C 62.515625 158.714844 63.167969 159.105469 63.804688 159.527344 C 64.4375 159.953125 65.050781 160.40625 65.640625 160.890625 C 66.230469 161.371094 66.796875 161.882812 67.335938 162.421875 C 67.875 162.960938 68.386719 163.527344 68.871094 164.113281 C 69.355469 164.703125 69.8125 165.316406 70.234375 165.949219 C 70.660156 166.582031 71.050781 167.238281 71.410156 167.910156 C 71.769531 168.582031 72.097656 169.269531 72.390625 169.972656 C 72.679688 170.675781 72.9375 171.394531 73.160156 172.125 C 73.382812 172.851562 73.566406 173.59375 73.714844 174.339844 C 73.863281 175.085938 73.976562 175.839844 74.050781 176.597656 C 74.125 177.359375 74.164062 178.117188 74.164062 178.878906 Z M 74.164062 178.878906 " fill-opacity="1" fill-rule="nonzero"/></g><path fill="#ffffff" d="M 60.171875 178.878906 C 60.171875 179.492188 60.109375 180.097656 59.992188 180.695312 C 59.871094 181.292969 59.695312 181.875 59.460938 182.441406 C 59.226562 183.003906 58.941406 183.539062 58.601562 184.046875 C 58.261719 184.558594 57.875 185.027344 57.441406 185.457031 C 57.007812 185.890625 56.539062 186.277344 56.027344 186.617188 C 55.519531 186.953125 54.984375 187.242188 54.417969 187.476562 C 53.851562 187.710938 53.269531 187.886719 52.671875 188.003906 C 52.070312 188.125 51.464844 188.183594 50.851562 188.183594 C 50.242188 188.183594 49.632812 188.125 49.035156 188.003906 C 48.433594 187.886719 47.851562 187.710938 47.285156 187.476562 C 46.722656 187.242188 46.183594 186.953125 45.675781 186.617188 C 45.167969 186.277344 44.695312 185.890625 44.261719 185.457031 C 43.832031 185.027344 43.445312 184.558594 43.105469 184.046875 C 42.765625 183.539062 42.476562 183.003906 42.242188 182.441406 C 42.007812 181.875 41.832031 181.292969 41.714844 180.695312 C 41.59375 180.097656 41.535156 179.492188 41.535156 178.878906 C 41.535156 178.269531 41.59375 177.664062 41.714844 177.066406 C 41.832031 176.464844 42.007812 175.882812 42.242188 175.320312 C 42.476562 174.753906 42.765625 174.21875 43.105469 173.710938 C 43.445312 173.203125 43.832031 172.734375 44.261719 172.300781 C 44.695312 171.871094 45.167969 171.484375 45.675781 171.144531 C 46.183594 170.804688 46.722656 170.519531 47.285156 170.285156 C 47.851562 170.050781 48.433594 169.875 49.035156 169.753906 C 49.632812 169.636719 50.242188 169.578125 50.851562 169.578125 C 51.464844 169.578125 52.070312 169.636719 52.671875 169.753906 C 53.269531 169.875 53.851562 170.050781 54.417969 170.285156 C 54.984375 170.519531 55.519531 170.804688 56.027344 171.144531 C 56.539062 171.484375 57.007812 171.871094 57.441406 172.300781 C 57.875 172.734375 58.261719 173.203125 58.601562 173.710938 C 58.941406 174.21875 59.226562 174.753906 59.460938 175.320312 C 59.695312 175.882812 59.871094 176.464844 59.992188 177.066406 C 60.109375 177.664062 60.171875 178.269531 60.171875 178.878906 Z M 60.171875 178.878906 " fill-opacity="1" fill-rule="nonzero"/><g fill="#593118" fill-opacity="1"><g transform="translate(79.338438, 212.579787)"><g><path d="M 4.621094 0 L 4.621094 -4.621094 L 11.34375 -5.042969 L 11.34375 -8.023438 L 4.621094 -7.605469 L 4.621094 -11.867188 L 11.828125 -11.867188 L 11.828125 -14.808594 L 1.261719 -14.808594 L 1.261719 0 Z M 4.621094 0 "/></g></g></g><g fill="#593118" fill-opacity="1"><g transform="translate(92.003558, 212.579787)"><g><path d="M 11.828125 0 L 11.828125 -2.941406 L 4.621094 -2.941406 L 4.621094 -5.945312 L 10.777344 -5.945312 L 10.777344 -8.886719 L 4.621094 -8.886719 L 4.621094 -11.867188 L 11.828125 -11.867188 L 11.828125 -14.808594 L 1.261719 -14.808594 L 1.261719 0 Z M 11.828125 0 "/></g></g></g><g fill="#593118" fill-opacity="1"><g transform="translate(104.668678, 212.579787)"><g><path d="M 15.902344 0 L 10.882812 -14.808594 L 5.417969 -14.808594 L 0.421875 0 L 3.824219 0 L 5.042969 -3.695312 L 11.28125 -3.695312 L 12.5 0 Z M 7.730469 -11.867188 L 8.570312 -11.867188 L 10.292969 -6.636719 L 6.007812 -6.636719 Z M 7.730469 -11.867188 "/></g></g></g><g fill="#593118" fill-opacity="1"><g transform="translate(120.988412, 212.579787)"><g><path d="M 14.304688 -4.074219 C 14.304688 -7.164062 10.125 -8.339844 7.394531 -9.261719 C 5.019531 -10.0625 4.664062 -10.3125 4.664062 -10.984375 C 4.664062 -11.742188 5.609375 -12.078125 7.121094 -12.078125 C 8.949219 -12.078125 10.335938 -11.574219 10.335938 -9.769531 L 13.695312 -9.769531 C 13.695312 -12.707031 11.660156 -15.019531 7.121094 -15.019531 C 3.296875 -15.019531 1.300781 -13.632812 1.300781 -11.113281 C 1.300781 -8.214844 3.84375 -7.371094 6.972656 -6.324219 C 9.136719 -5.585938 10.945312 -5.105469 10.945312 -4.03125 C 10.945312 -3.234375 10.230469 -2.730469 8.066406 -2.730469 C 5.125 -2.730469 3.992188 -3.445312 3.992188 -5.714844 L 0.628906 -5.714844 C 0.628906 -1.972656 2.625 0.210938 7.960938 0.210938 C 12.519531 0.210938 14.304688 -1.535156 14.304688 -4.074219 Z M 14.304688 -4.074219 "/></g></g></g><g fill="#593118" fill-opacity="1"><g transform="translate(135.921919, 212.579787)"><g><path d="M 0.628906 -14.808594 L 0.628906 -11.867188 L 5.484375 -11.867188 L 5.484375 0 L 8.84375 0 L 8.84375 -11.867188 L 13.675781 -11.867188 L 13.675781 -14.808594 Z M 0.628906 -14.808594 "/></g></g></g><g fill="#593118" fill-opacity="1"><g transform="translate(150.225319, 212.579787)"><g/></g></g><g fill="#593118" fill-opacity="1"><g transform="translate(156.106309, 212.579787)"><g><path d="M 4.621094 0 L 4.621094 -4.621094 L 11.34375 -5.042969 L 11.34375 -8.023438 L 4.621094 -7.605469 L 4.621094 -11.867188 L 11.828125 -11.867188 L 11.828125 -14.808594 L 1.261719 -14.808594 L 1.261719 0 Z M 4.621094 0 "/></g></g></g><g fill="#593118" fill-opacity="1"><g transform="translate(168.771428, 212.579787)"><g><path d="M 11.828125 0 L 11.828125 -2.941406 L 4.621094 -2.730469 L 4.621094 -14.808594 L 1.261719 -14.808594 L 1.261719 -1.554688 C 1.261719 -0.398438 1.910156 0.230469 3.066406 0.210938 Z M 11.828125 0 "/></g></g></g><g fill="#593118" fill-opacity="1"><g transform="translate(181.016484, 212.579787)"><g><path d="M 11.828125 0 L 11.828125 -2.941406 L 4.621094 -2.941406 L 4.621094 -5.945312 L 10.777344 -5.945312 L 10.777344 -8.886719 L 4.621094 -8.886719 L 4.621094 -11.867188 L 11.828125 -11.867188 L 11.828125 -14.808594 L 1.261719 -14.808594 L 1.261719 0 Z M 11.828125 0 "/></g></g></g><g fill="#593118" fill-opacity="1"><g transform="translate(193.681604, 212.579787)"><g><path d="M 11.828125 0 L 11.828125 -2.941406 L 4.621094 -2.941406 L 4.621094 -5.945312 L 10.777344 -5.945312 L 10.777344 -8.886719 L 4.621094 -8.886719 L 4.621094 -11.867188 L 11.828125 -11.867188 L 11.828125 -14.808594 L 1.261719 -14.808594 L 1.261719 0 Z M 11.828125 0 "/></g></g></g><g fill="#593118" fill-opacity="1"><g transform="translate(206.346724, 212.579787)"><g><path d="M 0.628906 -14.808594 L 0.628906 -11.867188 L 5.484375 -11.867188 L 5.484375 0 L 8.84375 0 L 8.84375 -11.867188 L 13.675781 -11.867188 L 13.675781 -14.808594 Z M 0.628906 -14.808594 "/></g></g></g></svg>