<svg xmlns="http://www.w3.org/2000/svg" width="400" viewBox="0 0 300 225" height="300" version="1.0"><defs><clipPath id="a190d32c46"><path d="M97 8.652h22V23H97Zm0 0"/></clipPath><clipPath id="9f79fc08ab"><path d="M225 155h48v47.152h-48Zm0 0"/></clipPath><clipPath id="9e176f2363"><path d="M27 155h48v47.152H27Zm0 0"/></clipPath></defs><path fill="#f64b31" d="M153.102 65.922c-.727 0-1.575 0-2.536-.098.282.899.512 1.813.692 2.735l.285 1.574-1.277-.945a35.41 35.41 0 0 1-2.848-2.387 25.795 25.795 0 0 1-2.156 2.547l-.82.847-.235-1.148a25.663 25.663 0 0 1-.488-3.66c-1.215.23-2.438.398-3.668.5l-1.574.129 1.054-1.164a19.848 19.848 0 0 1 2.047-1.965c-1.45-.801-3.023-1.727-3.289-1.903a11.436 11.436 0 0 0-5.465 2.653 11.235 11.235 0 0 0-2.004 2.316 11.104 11.104 0 0 0-1.316 2.766c-1.762 6.176 2.629 12.851 9.84 14.894 7.207 2.043 14.449-1.3 16.21-7.476.235-.887.356-1.79.364-2.707a11.082 11.082 0 0 0-1.266-5.266 10.93 10.93 0 0 0-1.55-2.242Zm-18.325-1.934c.957-.91 2.098-1.355 3.418-1.336.504.188-.144.88-1.23 1.82-1.086.946-2.281 1.794-2.957 1.731-.676-.062-.473-1.148.77-2.215Zm-2.816 12.461a9.303 9.303 0 0 1-1.156-3.48 9.317 9.317 0 0 1 .257-3.656c.137-.481.317-.946.536-1.399a1.586 1.586 0 0 1 .805-.797c.179-.078.367-.12.562-.129.195-.008.387.016.57.078.66.254.66 1.102.219 1.95a9.088 9.088 0 0 0-.629 1.57 8.999 8.999 0 0 0-.324 3.043 8.912 8.912 0 0 0 .703 2.976c1.289 3.192.426 3.41-1.543-.156Zm0 0"/><path fill="#157a2c" d="M149.574 65.102c1.57.156 3.145.218 4.723.191a43.87 43.87 0 0 0-4.457-2.172 20.456 20.456 0 0 0 2.883-2.34c-1.41.082-2.813.25-4.203.504.054-.984.015-1.965-.125-2.941a15.83 15.83 0 0 0-2.317 2.172 31.092 31.092 0 0 0-3.633-3.004c.254 1.168.61 2.304 1.07 3.41a45.89 45.89 0 0 0-4.96-.504 41.732 41.732 0 0 0 4.172 2.36c-.985.734-1.891 1.55-2.723 2.449 1.465-.122 2.91-.34 4.344-.657.011 1.453.168 2.895.472 4.32a22.983 22.983 0 0 0 2.489-3.144 32.89 32.89 0 0 0 3.336 2.828 20.864 20.864 0 0 0-1.07-3.472ZM79.074 75.523c-.086-.152-.18-.3-.285-.441-2.14-3.144-8.89-4.336-12.59-3.52l-.379-1.761c4.344-.832 11.348.14 14.496 4.21.145.208.27.41.395.614l-1.574.898ZM80.852 73.273c-1.336-2.214-1.942-4.613-1.809-7.195-.04-1.273.121-2.523.488-3.742a11.699 11.699 0 0 1 1.653-3.395l1.386 1.164c-1.226 1.81-1.797 3.805-1.718 5.989a10.621 10.621 0 0 0 1.464 6.113l-1.449 1.098v-.094Zm0 0"/><path fill="#157a2c" d="M79.484 72.535a20.341 20.341 0 0 1-2.64-6.023 20.312 20.312 0 0 1-.602-6.547l1.793.234a18.918 18.918 0 0 0 .563 5.887 18.798 18.798 0 0 0 2.351 5.43 5.93 5.93 0 0 0 1.7 1.57l-.946 1.57a7.714 7.714 0 0 1-2.219-2.152Zm0 0"/><path fill="#157a2c" d="M80.316 72.629c-.89-.805-1.675-1.7-2.359-2.688a37.85 37.85 0 0 1-4.723-9.539l-1.714.582a39.772 39.772 0 0 0 4.94 10.012c.696.961 1.474 1.852 2.33 2.672.483-.383.995-.727 1.526-1.04Zm0 0"/><path fill="#157a2c" d="m67.977 66.281.441-1.746c4.437 1.164 7.871 5.707 10.687 8.41l-1.257 1.305c-2.961-2.895-6.297-7.121-9.871-7.969Zm0 0"/><path fill="#f68820" d="M77.957 70.195c-2.394 1.711-3.148 4.887-.582 9.332-.207-.359-.395-.722-.55-1.066a19.932 19.932 0 0 1 6.296-3.145 49.724 49.724 0 0 0-5.668 4.164c.332.582.723 1.196 1.164 1.825-.172-.235-.312-.473-.472-.707a19.729 19.729 0 0 1 6.296-3.145 50.819 50.819 0 0 0-5.699 4.168l.805 1.035a20.156 20.156 0 0 1 6.183-3.144 58.685 58.685 0 0 0-5.414 4.039c.473.582.993 1.195 1.575 1.824l-.676-.785a19.157 19.157 0 0 1 5.95-2.89 63.674 63.674 0 0 0-5.274 3.737l.945 1.055a18.926 18.926 0 0 1 5.621-2.687c-1.215.91-3.309 2.12-4.914 3.472l-.598-.66c.528.574 1.051 1.156 1.575 1.742a18.688 18.688 0 0 1 5.242-2.433c-1.133.832-3.008 1.949-4.547 3.14 5.3 5.551 11.707 11.176 13.488 9.903 2.707-1.95-6.453-19.281-10.36-24.688-3.902-5.406-7.679-6.035-10.386-4.086Zm14.684 25.883-.598-.504a17.183 17.183 0 0 1 3.148-1.21c-.707.488-1.59 1.07-2.55 1.714Zm-1.965-1.683-.645-.582a17.162 17.162 0 0 1 3.809-1.57c-.82.597-2 1.273-3.164 2.152ZM88.8 92.652l-.66-.629a17.962 17.962 0 0 1 4.343-1.886c-.93.691-2.343 1.554-3.683 2.515Zm-1.809-1.761-.691-.692c1.5-.965 3.11-1.687 4.832-2.168-1.024.77-2.676 1.762-4.14 2.86Zm0 0"/><path fill="#157a2c" d="M124.39 69.234c.473-.39.88-.847 1.212-1.367 2.25-3.582.472-8.719-3.965-11.504-1.922-1.23-4.02-1.793-6.297-1.695a8.514 8.514 0 0 0-.809-2.063 8.51 8.51 0 0 0-5.078-4.05c-4.25-1.57-8.562-.297-9.648 2.703v.156h-.582c-3.543.285-6.297 2.797-5.98 5.625.023.219.066.434.124.645-2.332.082-4.203 1.574-4.203 3.27 0 1.698 1.969 3.284 4.375 3.284.461.043.918.008 1.367-.101a4.216 4.216 0 0 0 2.277-1.453c.29-.364.512-.762.669-1.196a6.987 6.987 0 0 0 3.62-.11 4.759 4.759 0 0 0 1.2 2.106 4.778 4.778 0 0 0 2.074 1.258 4.91 4.91 0 0 0 2.297.34 4.92 4.92 0 0 0 2.203-.734c.899 2.117 2.332 3.773 4.3 4.965.5.324 1.024.601 1.571.835a6.629 6.629 0 0 0 1.055 3.141c1.703 2.688 4.836 3.758 6.976 2.39a5.037 5.037 0 0 0 1.243-6.445ZM94.989 57.86l-.191-.316a3.337 3.337 0 0 1 .313-2.445c.206-.371.472-.692.804-.961.328-.274.7-.473 1.106-.602l.66-.219a3.576 3.576 0 0 0-1.902 1.848 3.55 3.55 0 0 0-.114 2.649l.203.359c.18.3.399.562.664.785a2.441 2.441 0 0 1-1.543-1.098Zm5.934-2.25a4.05 4.05 0 0 1-.184-2.101 4.116 4.116 0 0 1 .875-1.922 6.63 6.63 0 0 1 3.762-2.402 5.898 5.898 0 0 0-2.879 2.75 4.89 4.89 0 0 0-.578 2.062 4.9 4.9 0 0 0 .34 2.117c.3.703.742 1.297 1.324 1.793a3.902 3.902 0 0 1-2.66-2.297Zm1.984 6.477a2.302 2.302 0 0 1-.176-1.133 2.74 2.74 0 0 1 .489-1.223c.261-.37.59-.656.992-.867l.363-.172c.18-.07.364-.12.551-.156a2.64 2.64 0 0 0-.695.438c-.508.41-.836.933-.973 1.574a2.767 2.767 0 0 0 .188 1.789c.183.414.449.77.785 1.07a2.387 2.387 0 0 1-1.524-1.32Zm9.192-1.008a6.222 6.222 0 0 0-.899 2.75 5.155 5.155 0 0 1-.32-1.992c.023-.688.18-1.34.46-1.965.083-.16.145-.332.24-.488a5.08 5.08 0 0 1 3.444-2.215 7.607 7.607 0 0 1 2.82.059 7.68 7.68 0 0 1 2.61 1.07c.39.246.758.516 1.106.82a6.554 6.554 0 0 0-1.192-.601 6.87 6.87 0 0 0-2.605-.48c-.446.003-.887.05-1.325.14a6.912 6.912 0 0 0-3.484 1.855 6.655 6.655 0 0 0-.855 1.016Zm5.996 6.711c-.356.277-.637.61-.852 1.008a2.443 2.443 0 0 1 .945-1.793c.297-.2.622-.336.973-.402a2.592 2.592 0 0 1 2.012.438c.289.206.531.46.715.765.11.16.203.328.285.504a2.81 2.81 0 0 0-.852-.754 2.875 2.875 0 0 0-1.078-.368 2.87 2.87 0 0 0-1.137.086 2.857 2.857 0 0 0-1.011.516Zm-3.684 2.406a15.545 15.545 0 0 0-5.851 2.387 15.561 15.561 0 0 0-4.442 4.496c1.559-3.598 2.117-7.344 1.684-11.238a7.443 7.443 0 0 1-1.274-.297 7.317 7.317 0 0 1-1.574-.785c-.426 2.531-.976 4.996-1.574 7.574-.14-1.644-.52-3.23-1.137-4.758a16.363 16.363 0 0 0-2.484-4.215c-.442.5-.969.895-1.574 1.176 4.8 5.988 3.351 14.852.82 17.918l9.695 3.473a19.992 19.992 0 0 1 3.063-7.121 20.08 20.08 0 0 1 5.515-5.453 7.276 7.276 0 0 1-.882-3.157Zm0 0"/><path fill="#a4c52c" d="M61.29 80.41c-2.454 0-4.892.168-7.317.508a53.46 53.46 0 0 0-7.172 1.523 52.613 52.613 0 0 0-19.293 10.254 52.767 52.767 0 0 0-5.274 5.09 52.705 52.705 0 0 0-8.168 12.121c-.488 1.008 2.41 2.028 1.985 3.145h93.828a52.157 52.157 0 0 0-3.453-6.938 51.838 51.838 0 0 0-4.438-6.355A52.198 52.198 0 0 0 90.563 89.34a52.387 52.387 0 0 0-13.97-6.645A52.773 52.773 0 0 0 61.29 80.41Zm0 0"/><path fill="#57a52c" d="M61.29 89.695c-1.97 0-3.93.137-5.88.403a43.4 43.4 0 0 0-11.324 3.168 43.046 43.046 0 0 0-5.23 2.71 43.104 43.104 0 0 0-4.817 3.395 43.185 43.185 0 0 0-8.02 8.586 42.854 42.854 0 0 0-3.058 5.031h76.652a42.332 42.332 0 0 0-3.058-5.031 42.89 42.89 0 0 0-8.02-8.582 43.453 43.453 0 0 0-4.812-3.398 43.632 43.632 0 0 0-5.235-2.707 43 43 0 0 0-5.55-1.973 43.343 43.343 0 0 0-5.77-1.2 43.551 43.551 0 0 0-5.879-.402Zm0 0"/><path fill="#fff" d="M61.29 90.371a42.75 42.75 0 0 1 11.37 1.563 43.149 43.149 0 0 1 5.422 1.914 42.667 42.667 0 0 1 9.824 5.922 42.45 42.45 0 0 1 10.906 13.218h1.575a43.494 43.494 0 0 0-3.094-5.172 43.575 43.575 0 0 0-3.773-4.699 44.77 44.77 0 0 0-4.383-4.137 43.91 43.91 0 0 0-45.457-6.285 43.846 43.846 0 0 0-18.414 15.121 43.466 43.466 0 0 0-3.09 5.172h1.57a42.333 42.333 0 0 1 6.688-9.32 42.453 42.453 0 0 1 4.222-3.902 42.79 42.79 0 0 1 4.715-3.293 42.426 42.426 0 0 1 10.543-4.543A42.639 42.639 0 0 1 61.29 90.37Zm0 0"/><path fill="#157a2c" d="M61.29 99.11a33.678 33.678 0 0 0-15.297 3.668 33.65 33.65 0 0 0-6.583 4.398 33.228 33.228 0 0 0-5.367 5.812h54.492a33.4 33.4 0 0 0-5.37-5.812 33.534 33.534 0 0 0-6.583-4.399 33.533 33.533 0 0 0-7.43-2.738 33.552 33.552 0 0 0-7.863-.93Zm0 0"/><path fill="#fff" d="M61.29 99.8a33.142 33.142 0 0 1 14.722 3.493 32.784 32.784 0 0 1 6.375 4.164 32.797 32.797 0 0 1 5.25 5.516h1.777a31.658 31.658 0 0 0-1.234-1.645 33.959 33.959 0 0 0-2.754-3.055 33.971 33.971 0 0 0-4.762-3.91 35.318 35.318 0 0 0-1.738-1.11 33.476 33.476 0 0 0-3.653-1.89 33.518 33.518 0 0 0-3.851-1.445 38.17 38.17 0 0 0-1.984-.547 35.523 35.523 0 0 0-4.051-.734c-.68-.078-1.364-.14-2.051-.184a36.076 36.076 0 0 0-4.113 0c-.684.043-1.368.106-2.051.184a36.031 36.031 0 0 0-4.05.734 39.27 39.27 0 0 0-1.985.547 33.636 33.636 0 0 0-3.852 1.445 33.645 33.645 0 0 0-3.652 1.89c-.59.352-1.168.724-1.735 1.11-.566.383-1.12.79-1.664 1.207a33.972 33.972 0 0 0-3.102 2.703 34.05 34.05 0 0 0-3.988 4.7h1.794a32.893 32.893 0 0 1 11.617-9.691A32.954 32.954 0 0 1 61.289 99.8Zm0 0"/><path fill="#005b0f" d="M61.29 107.11a25.464 25.464 0 0 0-8.712 1.503 25.488 25.488 0 0 0-7.676 4.375h32.77a25.301 25.301 0 0 0-7.676-4.37 25.462 25.462 0 0 0-8.707-1.509Zm0 0"/><path fill="#fff" d="M61.29 107.8c2.75 0 5.42.446 8.023 1.337a24.62 24.62 0 0 1 7.164 3.851h2.265a25.912 25.912 0 0 0-5.918-3.941 26.34 26.34 0 0 0-13.87-2.535c-.794.07-1.579.18-2.36.32-.782.145-1.551.32-2.317.535a26.262 26.262 0 0 0-6.535 2.813c-.68.41-1.34.847-1.98 1.316-.64.469-1.258.965-1.852 1.492h2.219a24.68 24.68 0 0 1 7.152-3.843 24.805 24.805 0 0 1 8.008-1.344Zm0 0"/><path fill="#a4c52c" d="M190.324 133.434a58.072 58.072 0 0 0-1.29-11.285 58.067 58.067 0 0 0-3.444-10.82 57.768 57.768 0 0 0-2.496-5.114 59.164 59.164 0 0 0-2.977-4.844 58.76 58.76 0 0 0-11.547-12.496 58.54 58.54 0 0 0-14.652-8.656 59.61 59.61 0 0 0-5.371-1.899c-1.817-.543-3.66-1-5.524-1.367a59.55 59.55 0 0 0-5.636-.824 58.772 58.772 0 0 0-5.684-.277c-1.902 0-3.797.093-5.687.277a59.55 59.55 0 0 0-5.637.824 59.676 59.676 0 0 0-5.524 1.367 59.61 59.61 0 0 0-5.37 1.899 58.293 58.293 0 0 0-5.157 2.406 58.54 58.54 0 0 0-9.496 6.25 58.222 58.222 0 0 0-8.11 7.965 58.76 58.76 0 0 0-3.437 4.531 58.872 58.872 0 0 0-7.46 15.281 59.302 59.302 0 0 0-2.379 11.105 58.649 58.649 0 0 0-.368 5.677c0 1.066 0 2.136.094 3.14H190.23a51.15 51.15 0 0 0 .094-3.14Zm0 0"/><path fill="#fff" d="M73.863 133.434a57.733 57.733 0 0 1 2.715-16.555A57.725 57.725 0 0 1 81 106.586a58.712 58.712 0 0 1 2.938-4.781 57.902 57.902 0 0 1 3.39-4.47 57.646 57.646 0 0 1 12.535-11.167 56.62 56.62 0 0 1 4.832-2.856 57.31 57.31 0 0 1 5.09-2.374 57.555 57.555 0 0 1 10.75-3.22 57.843 57.843 0 0 1 5.555-.816 58.565 58.565 0 0 1 11.222 0 58.104 58.104 0 0 1 16.305 4.035 57.31 57.31 0 0 1 5.09 2.376 58 58 0 0 1 9.367 6.164 57.646 57.646 0 0 1 8 7.86 57.902 57.902 0 0 1 3.39 4.468 58.712 58.712 0 0 1 2.938 4.78 57.725 57.725 0 0 1 7.137 26.849c0 1.066 0 2.136-.094 3.14h1.575c0-1.05.093-2.12.093-3.14a59.48 59.48 0 0 0-1.305-11.438 59.343 59.343 0 0 0-6.02-16.148 60.82 60.82 0 0 0-3.018-4.91 59.81 59.81 0 0 0-7.395-8.828 58.993 58.993 0 0 0-4.309-3.837 58.43 58.43 0 0 0-4.656-3.402 59.769 59.769 0 0 0-10.195-5.375 60.657 60.657 0 0 0-5.438-1.922 60.403 60.403 0 0 0-11.312-2.222 60.394 60.394 0 0 0-5.762-.278c-1.926 0-3.848.094-5.766.278a59.871 59.871 0 0 0-11.312 2.222 59.457 59.457 0 0 0-31.992 23.363 59.688 59.688 0 0 0-5.547 10.09 59.343 59.343 0 0 0-4.797 22.407c0 1.066 0 2.136.094 3.14h1.574a51.15 51.15 0 0 1-.094-3.14Zm0 0"/><path fill="#57a52c" d="M179.922 133.434a48.445 48.445 0 0 0-.926-9.395 47.707 47.707 0 0 0-1.152-4.586 47.877 47.877 0 0 0-3.617-8.719 48.408 48.408 0 0 0-2.434-4.054 48.412 48.412 0 0 0-2.82-3.793 48.11 48.11 0 0 0-3.176-3.504 49.03 49.03 0 0 0-3.508-3.172 49.5 49.5 0 0 0-3.8-2.816 48.568 48.568 0 0 0-8.34-4.45 48.34 48.34 0 0 0-9.047-2.738 48.435 48.435 0 0 0-4.68-.695 49.023 49.023 0 0 0-4.727-.23c-1.582 0-3.156.077-4.73.23a48.435 48.435 0 0 0-18.004 5.453 48.93 48.93 0 0 0-4.063 2.43 49.5 49.5 0 0 0-3.8 2.816 49.03 49.03 0 0 0-3.508 3.172 48.11 48.11 0 0 0-3.176 3.504 48.411 48.411 0 0 0-2.82 3.793 48.408 48.408 0 0 0-4.457 8.324 47.491 47.491 0 0 0-1.594 4.45 47.707 47.707 0 0 0-1.844 9.257 47.668 47.668 0 0 0-.234 4.723c0 1.066 0 2.136.11 3.14h96.222a40.89 40.89 0 0 0 .125-3.14Zm0 0"/><path fill="#fff" d="M84.27 133.434a46.1 46.1 0 0 1 .148-4.704 47.175 47.175 0 0 1 3.21-13.688 47.957 47.957 0 0 1 1.958-4.276 48.513 48.513 0 0 1 2.371-4.063 47.937 47.937 0 0 1 5.895-7.32 47.28 47.28 0 0 1 11.25-8.457 47.042 47.042 0 0 1 8.671-3.637 48.5 48.5 0 0 1 4.567-1.152 47.354 47.354 0 0 1 18.723 0 48.5 48.5 0 0 1 4.566 1.152 47.042 47.042 0 0 1 8.672 3.637 47.392 47.392 0 0 1 7.789 5.27 47.644 47.644 0 0 1 9.355 10.508 48.513 48.513 0 0 1 2.371 4.062 47.958 47.958 0 0 1 1.957 4.277 47.175 47.175 0 0 1 3.21 13.688 46.1 46.1 0 0 1 .15 4.703c0 1.066 0 2.136-.125 3.14h1.574c0-1.05.11-2.12.11-3.14a48.643 48.643 0 0 0-.79-9.672 49.168 49.168 0 0 0-1.109-4.73 49.014 49.014 0 0 0-6.05-13.207 49.376 49.376 0 0 0-2.856-3.93 48.36 48.36 0 0 0-3.235-3.633 48.228 48.228 0 0 0-3.574-3.29 48.533 48.533 0 0 0-3.887-2.921 47.915 47.915 0 0 0-4.16-2.524 49.1 49.1 0 0 0-4.386-2.101 49.458 49.458 0 0 0-9.29-2.848 49.8 49.8 0 0 0-4.812-.719 49.181 49.181 0 0 0-4.86-.242c-1.62 0-3.242.082-4.855.242a49.8 49.8 0 0 0-4.812.72 49.458 49.458 0 0 0-9.29 2.848 48.59 48.59 0 0 0-4.386 2.1 47.915 47.915 0 0 0-4.16 2.524 48.533 48.533 0 0 0-3.887 2.922 48.228 48.228 0 0 0-3.574 3.289 48.36 48.36 0 0 0-3.235 3.633 49.376 49.376 0 0 0-2.855 3.93 49.014 49.014 0 0 0-6.05 13.207 49.168 49.168 0 0 0-1.747 9.546 47.93 47.93 0 0 0-.152 4.856c0 1.066 0 2.136.11 3.14h1.573a67.54 67.54 0 0 1-.093-3.14Zm0 0"/><path fill="#157a2c" d="M169.406 133.434a37.99 37.99 0 0 0-1.102-7.023 39.662 39.662 0 0 0-1.042-3.4 37.727 37.727 0 0 0-7.203-12.188 38.25 38.25 0 0 0-2.477-2.557 37.868 37.868 0 0 0-8.715-6.121 37.817 37.817 0 0 0-3.246-1.465 37.675 37.675 0 0 0-3.371-1.157 38.325 38.325 0 0 0-6.988-1.332 38.678 38.678 0 0 0-3.559-.168c-1.191 0-2.379.059-3.562.168-1.184.114-2.36.282-3.524.504-1.168.223-2.324.5-3.465.828a37.675 37.675 0 0 0-3.37 1.157 37.817 37.817 0 0 0-11.962 7.586 38.25 38.25 0 0 0-4.703 5.336c-.699.96-1.347 1.953-1.953 2.976a38.927 38.927 0 0 0-1.664 3.145 38.307 38.307 0 0 0-1.36 3.289 39.662 39.662 0 0 0-1.042 3.398 37.991 37.991 0 0 0-1.102 7.024c0 1.082 0 2.136.156 3.14h75.098c.094-1.004.156-2.058.156-3.14Zm0 0"/><path fill="#fff" d="M94.781 133.434a37.461 37.461 0 0 1 .84-7.086c.254-1.164.563-2.313.93-3.446a36.228 36.228 0 0 1 2.836-6.547 37.39 37.39 0 0 1 1.879-3.039 36.74 36.74 0 0 1 7.27-7.832c.929-.746 1.89-1.449 2.89-2.101a36.34 36.34 0 0 1 6.32-3.324c1.106-.45 2.23-.844 3.371-1.188a37.84 37.84 0 0 1 3.473-.855 36.088 36.088 0 0 1 3.539-.516 36.372 36.372 0 0 1 7.144 0c1.188.113 2.368.285 3.54.516a37.84 37.84 0 0 1 3.472.855c1.14.344 2.266.738 3.371 1.188a36.34 36.34 0 0 1 6.32 3.324c1 .652 1.962 1.355 2.891 2.101.93.746 1.82 1.54 2.676 2.371a37.27 37.27 0 0 1 4.594 5.46 36.331 36.331 0 0 1 1.879 3.04 36.332 36.332 0 0 1 2.836 6.547c.367 1.133.675 2.282.93 3.446a37.461 37.461 0 0 1 .84 7.086c0 1.082 0 2.136-.161 3.14h1.574c.094-1.05.16-2.105.16-3.14a38.987 38.987 0 0 0-.871-7.39 39.32 39.32 0 0 0-.969-3.595 39.429 39.429 0 0 0-1.312-3.488 37.802 37.802 0 0 0-1.645-3.34 38.125 38.125 0 0 0-4.214-6.133 38.12 38.12 0 0 0-5.325-5.207 38.498 38.498 0 0 0-3.011-2.195 38.84 38.84 0 0 0-3.211-1.89 38.67 38.67 0 0 0-10.52-3.707 39.264 39.264 0 0 0-3.691-.54 39.515 39.515 0 0 0-3.723-.18c-1.246 0-2.488.063-3.726.18-1.239.121-2.47.301-3.692.54a38.67 38.67 0 0 0-10.52 3.707 38.84 38.84 0 0 0-3.21 1.89 39.029 39.029 0 0 0-5.8 4.668 38.119 38.119 0 0 0-2.536 2.734 37.994 37.994 0 0 0-4.215 6.133 37.801 37.801 0 0 0-1.645 3.34 39.429 39.429 0 0 0-1.312 3.488 39.32 39.32 0 0 0-.969 3.594 38.987 38.987 0 0 0-.871 7.39c0 1.083 0 2.137.145 3.141h1.574a40.363 40.363 0 0 1-.145-3.14Zm0 0"/><path fill="#005b0f" d="M160.45 133.434a28.263 28.263 0 0 0-.552-5.602 28.946 28.946 0 0 0-1.637-5.387 27.583 27.583 0 0 0-1.206-2.547 28.465 28.465 0 0 0-5.028-6.77 29.053 29.053 0 0 0-4.355-3.57 29.816 29.816 0 0 0-2.422-1.449 29.199 29.199 0 0 0-5.207-2.152 28.91 28.91 0 0 0-11.168-1.098 28.91 28.91 0 0 0-5.531 1.098c-.899.273-1.785.59-2.656.95-.868.359-1.72.761-2.551 1.202-.828.446-1.637.926-2.422 1.45a29.053 29.053 0 0 0-4.355 3.57 28.212 28.212 0 0 0-1.895 2.09c-.598.726-1.16 1.48-1.684 2.261a28.465 28.465 0 0 0-1.449 2.418 27.583 27.583 0 0 0-1.207 2.547 28.946 28.946 0 0 0-1.637 5.387 28.263 28.263 0 0 0-.55 5.602c.007 1.05.07 2.097.187 3.14h57.137c.125-1.043.187-2.09.187-3.14Zm0 0"/><path fill="#fff" d="M103.723 133.434a27.817 27.817 0 0 1 2.125-10.692c.351-.847.742-1.672 1.175-2.48.43-.805.899-1.59 1.41-2.352a27.207 27.207 0 0 1 1.633-2.203 28.345 28.345 0 0 1 1.844-2.031 28.349 28.349 0 0 1 4.238-3.473c.762-.508 1.547-.98 2.356-1.41a26.664 26.664 0 0 1 2.484-1.172 27.444 27.444 0 0 1 5.246-1.59 28.039 28.039 0 0 1 5.46-.54 28.02 28.02 0 0 1 5.458.54 27.36 27.36 0 0 1 5.246 1.59c.848.348 1.676.738 2.485 1.172.808.43 1.594.902 2.355 1.41a28.349 28.349 0 0 1 4.238 3.473 28.344 28.344 0 0 1 1.844 2.031 27.207 27.207 0 0 1 1.633 2.203c.512.762.98 1.547 1.414 2.352.43.808.82 1.633 1.172 2.48a28.399 28.399 0 0 1 1.59 5.238 27.732 27.732 0 0 1 .535 5.454c0 1.05-.062 2.097-.187 3.14h1.57c.113-1.043.172-2.09.176-3.14 0-.97-.047-1.93-.145-2.895a28.429 28.429 0 0 0-.426-2.863 28.857 28.857 0 0 0-.703-2.805 29.01 29.01 0 0 0-.976-2.726 30.217 30.217 0 0 0-1.239-2.618 29.656 29.656 0 0 0-5.164-6.953 30.635 30.635 0 0 0-2.148-1.945 29.41 29.41 0 0 0-2.332-1.723 30.703 30.703 0 0 0-2.485-1.488 29.694 29.694 0 0 0-5.351-2.215 31.474 31.474 0 0 0-2.813-.703 29.656 29.656 0 0 0-2.867-.422 28.743 28.743 0 0 0-2.898-.144c-.965 0-1.93.046-2.895.144-.96.094-1.918.234-2.867.422a29.486 29.486 0 0 0-8.164 2.918 30.041 30.041 0 0 0-4.816 3.21 29.723 29.723 0 0 0-5.82 6.414 29.108 29.108 0 0 0-2.73 5.102c-.372.891-.697 1.801-.978 2.727-.281.922-.515 1.86-.703 2.805-.191.949-.332 1.902-.426 2.863a28.666 28.666 0 0 0-.144 2.895c.008 1.05.074 2.097.191 3.14h1.57a27.2 27.2 0 0 1-.171-3.14Zm0 0"/><path fill="#ba9874" d="M85.371 29.918c-6.613-.629-12.734 3.488-13.066 7.055-.328 3.566 4.722 4.382 11.285 4.996 6.566.613 12.328.804 12.594-2.766.27-3.566-4.204-8.672-10.813-9.285Zm-6.078 3.25a6.629 6.629 0 0 0-2.254 1.852 6.608 6.608 0 0 0-1.254 2.628 2.34 2.34 0 0 0 .14 1.18c.223.629-.28.77-1.054 0-.527-.523-.742-1.152-.644-1.887.265-2.828 5.132-6.097 10.37-5.609h.145c-1.957.2-3.773.813-5.449 1.836ZM81.5 42.598c-2.031 3.535-6.613 6.289-4.078 9.257 5.148 5.989 9.316-1.335 9.445-6.003a18.093 18.093 0 0 0-.113-2.797c-1.024 0-2.11-.14-3.29-.25Zm0 0"/><path fill="#57a52c" d="M46.555 33.973a2.725 2.725 0 0 0-.399 1.824c.043.32.137.621.282.906.148.285.34.54.574.758.613.644 1.117.8 1.054.973-.062.171-.738.093-1.574-.692a3.103 3.103 0 0 1-1.11-2.004 3.054 3.054 0 0 1 .06-1.16 3.2 3.2 0 0 1 .968-1.61 3.29 3.29 0 0 1 1.262-.719c.234-.073.473-.116.719-.136a3.26 3.26 0 0 1 1.437.207c.23.086.445.2.652.336.204.133.391.29.563.465.36 1.102-.852 2.281-1.813 1.746a2.296 2.296 0 0 1-1.054-.73 2.284 2.284 0 0 1-.52-1.172 3.25 3.25 0 0 1 3.371-3.14 3.124 3.124 0 0 0-2.125.972 3.052 3.052 0 0 0-.644 1 3.15 3.15 0 0 0-.223 1.168c0 1.367 2.692 2.168 2.344.41a2.784 2.784 0 0 0-.969-.422 2.846 2.846 0 0 0-2.059.32 2.841 2.841 0 0 0-.796.7Zm0 0"/><path fill="#57a52c" d="M55.777 45.523c-4.136-3.742-8.293-7.859-9.617-9.289a2.899 2.899 0 0 0 0 1.32c.05.2.05.4 0 .598l.113.11a38.28 38.28 0 0 1 2.579 5.515c.945 2.059 1.89 4.133 2.804 6.207.168.36.137.7-.093 1.024a14.748 14.748 0 0 0 5.078 2.672c1.87.558 3.777.738 5.718.547 1.645-.188 3.18-.711 4.594-1.57a42.274 42.274 0 0 1-11.176-7.134ZM45.691 36.453a2.455 2.455 0 0 1-.3-.469h-.078l.28.485Zm0 0"/><path fill="#57a52c" d="M47.262 40.43a1.641 1.641 0 0 1-.355 1.207 1.672 1.672 0 0 1-.485.422c-.188.109-.39.18-.606.21h-.3v.801l.379-.125a2.14 2.14 0 0 1 2.828 2.336 2.136 2.136 0 0 1-.309.82c-.16.25-.36.462-.61.63a2.1 2.1 0 0 1-.808.331 2.016 2.016 0 0 1-.914.094c0 .282.145.567.223.832.27-.261.59-.433.957-.52.265-.128.547-.198.843-.21.293-.016.579.031.856.14a2.092 2.092 0 0 1 1.207 1.192 2.109 2.109 0 0 1-.574 2.387 2.127 2.127 0 0 1-.758.421c-.328.16-.672.23-1.04.207.134.278.282.551.442.817.211-.281.473-.496.79-.645a2.114 2.114 0 0 1 2.887.84 2.12 2.12 0 0 1 .18 1.617c-.083.27-.208.516-.388.735a2.07 2.07 0 0 1-.633.531 2.175 2.175 0 0 1-.472.223l.425.515c.094-.11.203-.203.328-.281.18-.125.375-.21.59-.258a1.666 1.666 0 0 1 1.242.195c.188.11.348.25.481.422.121.18.203.375.246.586.047.211.05.422.02.633a1.743 1.743 0 0 1-.625 1.078c.55.532 1.132 1.024 1.746 1.477l.14.094a64.355 64.355 0 0 0-2.863-12.493 77.489 77.489 0 0 0-6.547-11c0 .47-.176 1.305-.238 2.387.2-.008.394.02.586.082.191.063.363.156.523.278a1.668 1.668 0 0 1 .605.992Zm0 0"/><path fill="#57a52c" d="M45.406 35.984a15.756 15.756 0 0 0-1.914 3.508 15.802 15.802 0 0 0-.949 7.871 15.588 15.588 0 0 0 1.023 3.864c3.32 8.203 12.024 10.152 11.914 9.617-.3.55-7.226-5.547-8.878-10.688-2.438-5.246-1.383-14.14-1.133-14.062ZM141.703 42.047a18.825 18.825 0 0 0-2.8 6.289 61.183 61.183 0 0 0-.946 4.242 11.993 11.993 0 0 1-.824-4.742c.047-1.637.41-3.2 1.094-4.688a15.34 15.34 0 0 1 5.242-5.136c.363 1.312.535 2.652.511 4.015a13.893 13.893 0 0 1-.656 3.996 14.004 14.004 0 0 1-4.5 6.633 61.04 61.04 0 0 1 .692-4.054 27.997 27.997 0 0 1 2.187-6.555Zm0 0"/><path fill="#a4c52c" d="M127.238 43.7a26.856 26.856 0 0 1 4.52 7.636c.707 1.715 1.289 3.473 1.84 5.234a13.363 13.363 0 0 0 .691-6.511 13.21 13.21 0 0 0-.867-3.184 13.374 13.374 0 0 0-1.617-2.879 14.514 14.514 0 0 0-3.465-3.031 14.52 14.52 0 0 0-4.235-1.809 15.424 15.424 0 0 0 0 8.504c.325 1.02.758 1.992 1.301 2.918.543.926 1.18 1.777 1.91 2.563a14.508 14.508 0 0 0 2.43 2.078 14.6 14.6 0 0 0 2.828 1.492c-.41-1.73-.847-3.426-1.398-5.09a26.294 26.294 0 0 0-3.938-7.922ZM56.156 21.652a20.103 20.103 0 0 1 4.582 4.711 35.271 35.271 0 0 1 2.235 3.461 9.913 9.913 0 0 0-.625-4.828 9.857 9.857 0 0 0-2.855-3.941c-1.895-1.414-4.024-2.133-6.391-2.153-.102 2.18.375 4.23 1.433 6.145a10.56 10.56 0 0 0 3.27 3.394 10.57 10.57 0 0 0 4.41 1.664 37.88 37.88 0 0 0-1.887-3.425 20.095 20.095 0 0 0-4.172-5.028Zm0 0"/><path fill="#157a2c" d="M69.3 25.848a12.726 12.726 0 0 0-1.952 4.808c-.22 1.114-.157 2.512-.266 3.645a8.129 8.129 0 0 1-1.25-3.867 8.152 8.152 0 0 1 .762-3.989 8.696 8.696 0 0 1 4.011-3.648 9.618 9.618 0 0 1 1.102 5.094 8.817 8.817 0 0 1-1.277 3.644 8.784 8.784 0 0 1-2.703 2.766c0-1.082.093-2.168.203-3.239.172-1.812.629-3.55 1.37-5.214Zm0 0"/><path fill="#fff" d="M58.36 88.36c.515-.895.788-1.864.824-2.895a6.152 6.152 0 0 0-.618-2.95A7.783 7.783 0 0 0 56.125 80c-2.926-2.043-6.469-3.016-9.445-5.012a16.143 16.143 0 0 1-5.02-5.406 4.616 4.616 0 0 0-.898-1.273 1.269 1.269 0 0 0-.684-.352 1.247 1.247 0 0 0-.762.086c-.199.125-.351.297-.457.508a1.2 1.2 0 0 0-.125.668c.036.469.168.91.391 1.32a32.22 32.22 0 0 0 6.879 10.106c1.969 1.886 4.297 3.597 5.18 6.16.312.894.425 1.855.675 2.765.41 1.477 1.274 3.051 2.961 2.25a7.802 7.802 0 0 0 3.54-3.46Zm0 0"/><path fill="#7f3068" d="M54.238 77.879a51.598 51.598 0 0 1-7.46-4.461 22.134 22.134 0 0 1-3.34-3.145c-.692-.8-1.446-1.714-2.266-2.562-.442.191-.899.34-1.367.441.785.754 1.57 1.57 2.25 2.418l.441.52a24.075 24.075 0 0 0 3.508 3.285 52.495 52.495 0 0 0 7.398 4.43l.25.129c5.7 3 5.149 5.984 4.25 7.964a10.932 10.932 0 0 1-2.988 4.118 12.78 12.78 0 0 0 1.398-2.153c1.086-2.027 1.86-5.136-3.949-8.691l-.25-.14a52.936 52.936 0 0 1-7.511-5.184 23.52 23.52 0 0 1-3.493-3.696l-.425-.582c-.567-.738-1.18-1.57-1.825-2.293h-.457c.266.93.32 1.875.172 2.828l-.125.832-.804-.265a19.154 19.154 0 0 1-4.122-1.98 4.828 4.828 0 0 1-.808 1.804 4.872 4.872 0 0 1-1.457 1.34 27.46 27.46 0 0 0 5.492 13.48c4.91 5.957 16.855 12.95 22.305 1.055 2.09-4.512-1.008-7.496-4.817-9.492Zm0 0"/><path fill="#157a2c" d="M41.457 66.8a11.43 11.43 0 0 0-5.715-3.519c-1.387-.285-2.535-.629-2.898-1.886l-1.57.722c.308.57.456 1.184.44 1.836a3.57 3.57 0 0 1-.538 1.809 8.897 8.897 0 0 0-.754 2.957c.05 1.207.215 2.402.488 3.582a4.92 4.92 0 0 0 1.598-1.766 4.895 4.895 0 0 0 .59-2.305c0 .926 4.011 2.61 4.8 2.86a4.53 4.53 0 0 0-.039-2.11c-.18-.699-.507-1.32-.984-1.867.945 1.04 3.527.38 4.582-.312Zm0 0"/><g clip-path="url('#a190d32c46')"><path fill="#157a2c" d="M112.867 19.23c1.04-.488 4.723-1.289 3.953-2.78-1.039-1.903-5.511.8-6.437 1.71-1.324-2.62.488-5.058-.285-7.543-1.196-3.785-5.098-1.57-5.004 1.824-3.762-5.359-11.067-.363-5.887 3 2.8 1.809 4.328.758 7.223 1.95a4.759 4.759 0 0 1 2.246 1.672c.281.386.5.804.652 1.257.156.453.238.918.25 1.395a.97.97 0 0 1 .3 0 6.196 6.196 0 0 1 2.5 1.082c1.126-.2 2.259-.309 3.403-.328 5.84-.535.598-3.504-2.914-3.239Zm0 0"/></g><path fill="#7f3068" d="M110.43 21.383a7.496 7.496 0 0 0-2.86-.418 7.434 7.434 0 0 0-4.047 1.465c-.386.289-.746.617-1.07.98-.324.36-.61.75-.855 1.168-.25.418-.453.856-.614 1.317-1.574 5.312 4.5 7.085 3.637 14.03 2.926-6.015 9.445-3.66 11.176-9.632a7.38 7.38 0 0 0-.23-4.258 7.338 7.338 0 0 0-2.547-3.422 7.186 7.186 0 0 0-1.235-.742 7.584 7.584 0 0 0-1.355-.488Zm-8.39 5.879c-.126.414-.196.84-.22 1.273a4.624 4.624 0 0 1 .125-2.375c.145-.398.325-.781.543-1.144a6.48 6.48 0 0 1 1.7-1.863c.343-.25.707-.465 1.09-.645a6.59 6.59 0 0 1 1.195-.422 6.51 6.51 0 0 1 1.257-.18c.422-.015.848.008 1.266.07.418.067.828.172 1.227.317.5.148.976.348 1.433.598-4.312-1.098-8.562.82-9.617 4.37Zm0 0"/><path fill="#f68820" d="M13.832 109.766h163.352a4.095 4.095 0 0 1 2.254.683 4.01 4.01 0 0 1 1.496 1.82c.101.247.18.497.23.758.055.262.078.528.078.793v58.477H13.832Zm0 0"/><path fill="#c6c6c6" d="M285.883 182.605H12.933v-13.972H171.61v-84.36h49c1.032 0 2.04.141 3.032.43.988.29 1.914.715 2.78 1.27a10.676 10.676 0 0 1 3.946 4.59l12.262 28.097a131.577 131.577 0 0 1 37.258 16.5 13.999 13.999 0 0 1 6.015 8.297c.293 1.133.438 2.29.438 3.457v18.86Zm0 0"/><path fill="#fff" d="M277.07 160.023c0 .473.043.946.13 1.415.085.468.214.921.386 1.367a7.733 7.733 0 0 0 1.488 2.41c.32.351.672.672 1.051.957a7.74 7.74 0 0 0 3.934 1.535v-15.402a7.807 7.807 0 0 0-3.938 1.55c-.379.29-.726.61-1.047.965a7.771 7.771 0 0 0-1.875 3.785 7.847 7.847 0 0 0-.129 1.418ZM223.742 93.516a3.446 3.446 0 0 0-1.27-1.504 3.432 3.432 0 0 0-1.878-.586h-41.918v32.136h48.137l6.027-9.43Zm0 0"/><path fill="#54381c" d="M11.957 165.727h276.035c.328 0 .645.062.945.187.305.125.57.305.801.535a2.444 2.444 0 0 1 .727 1.746v11.942a2.458 2.458 0 0 1-1.527 2.281c-.301.125-.618.187-.946.187H11.957a2.458 2.458 0 0 1-1.746-.722 2.463 2.463 0 0 1-.723-1.746v-11.942a2.463 2.463 0 0 1 2.469-2.469Zm0 0"/><path fill="#c6c6c6" d="M248.738 153.375c-.77 0-1.535.035-2.3.11-.762.07-1.524.171-2.278.312-.754.137-1.5.308-2.238.516-.742.207-1.469.445-2.188.714a25.882 25.882 0 0 0-4.132 2.004 25.547 25.547 0 0 0-12.176 18.582h50.62a25.468 25.468 0 0 0-1-4.48 24.98 24.98 0 0 0-.8-2.153 23.99 23.99 0 0 0-.988-2.074c-.36-.676-.75-1.336-1.172-1.976a25.01 25.01 0 0 0-1.344-1.864 27.477 27.477 0 0 0-1.504-1.734 27.715 27.715 0 0 0-1.656-1.594 27.495 27.495 0 0 0-1.793-1.437 26.268 26.268 0 0 0-3.937-2.363 25.882 25.882 0 0 0-2.114-.91 26.888 26.888 0 0 0-2.183-.715 24.812 24.812 0 0 0-2.243-.516 24.918 24.918 0 0 0-2.277-.313 23.789 23.789 0 0 0-2.297-.109Zm0 0"/><g clip-path="url('#9f79fc08ab')"><path fill="#54381c" d="M272.031 178.879c0 .762-.035 1.523-.113 2.281a23.198 23.198 0 0 1-.332 2.262 24.17 24.17 0 0 1-.559 2.215c-.218.73-.476 1.445-.77 2.148a23.211 23.211 0 0 1-.976 2.067 23.632 23.632 0 0 1-1.18 1.957 22.503 22.503 0 0 1-2.898 3.527 23.38 23.38 0 0 1-5.492 4.07c-.676.36-1.363.684-2.07.977a23.108 23.108 0 0 1-4.371 1.324c-.75.148-1.504.262-2.262.336-.762.074-1.524.11-2.285.11a23.287 23.287 0 0 1-8.922-1.77 23.239 23.239 0 0 1-4.031-2.152 22.963 22.963 0 0 1-3.532-2.895 23.32 23.32 0 0 1-5.824-9.7 22.942 22.942 0 0 1-.555-2.214 23.412 23.412 0 0 1-.45-4.543 23.473 23.473 0 0 1 .45-4.54c.149-.745.332-1.487.555-2.214a22.615 22.615 0 0 1 1.75-4.215c.36-.672.75-1.328 1.176-1.96a23.011 23.011 0 0 1 2.898-3.528 24.003 24.003 0 0 1 3.531-2.895 24.28 24.28 0 0 1 1.961-1.172 22.72 22.72 0 0 1 2.07-.976 23.018 23.018 0 0 1 4.371-1.324 23.287 23.287 0 0 1 9.099 0c.746.148 1.488.332 2.218.554.73.22 1.45.477 2.153.77.707.289 1.394.617 2.07.976.672.36 1.324.75 1.96 1.172.638.426 1.247.88 1.837 1.364a23.293 23.293 0 0 1 3.234 3.223 23.702 23.702 0 0 1 2.54 3.797c.359.671.683 1.359.976 2.062a23.853 23.853 0 0 1 1.328 4.367c.148.746.258 1.5.332 2.258.078.761.113 1.52.113 2.28Zm0 0"/></g><path fill="#fff" d="M258.04 178.879c0 .613-.06 1.219-.18 1.816a9.327 9.327 0 0 1-3.96 5.922 9.526 9.526 0 0 1-1.615.86 9.004 9.004 0 0 1-1.746.527 9.18 9.18 0 0 1-1.816.18 9.19 9.19 0 0 1-1.82-.18 9.087 9.087 0 0 1-1.747-.527 9.677 9.677 0 0 1-1.613-.86 9.32 9.32 0 0 1-1.41-1.16 9.327 9.327 0 0 1-2.55-4.762 9.122 9.122 0 0 1-.18-1.816 9.295 9.295 0 0 1 .71-3.559 9.22 9.22 0 0 1 2.02-3.02c.433-.429.902-.816 1.41-1.155a9.397 9.397 0 0 1 3.36-1.391 9.488 9.488 0 0 1 3.636 0 9.295 9.295 0 0 1 1.746.531 9.255 9.255 0 0 1 3.024 2.016 9.22 9.22 0 0 1 2.02 3.02c.233.562.413 1.144.53 1.745.121.598.18 1.204.18 1.813Zm0 0"/><path fill="#c6c6c6" d="M50.852 153.375c-.766 0-1.532.035-2.297.11-.766.07-1.524.171-2.278.312a24.51 24.51 0 0 0-2.242.516c-.738.207-1.469.445-2.183.714a25.882 25.882 0 0 0-4.137 2.004c-.656.395-1.293.82-1.914 1.27-.617.453-1.215.933-1.793 1.437a26.584 26.584 0 0 0-1.656 1.594 27.54 27.54 0 0 0-1.508 1.734 27.483 27.483 0 0 0-1.344 1.864c-.418.64-.809 1.3-1.172 1.976-.36.676-.687 1.367-.988 2.074a25.468 25.468 0 0 0-1.797 6.633h50.605a27.37 27.37 0 0 0-.398-2.261 26.912 26.912 0 0 0-.598-2.22c-.234-.73-.5-1.445-.797-2.152a25.726 25.726 0 0 0-2.156-4.05 25.5 25.5 0 0 0-2.852-3.598 23.616 23.616 0 0 0-1.656-1.594 25.259 25.259 0 0 0-3.707-2.71 25.769 25.769 0 0 0-2.02-1.094 24.557 24.557 0 0 0-2.112-.907 25.033 25.033 0 0 0-4.426-1.234 26.151 26.151 0 0 0-2.278-.313 24.975 24.975 0 0 0-2.296-.105Zm0 0"/><g clip-path="url('#9e176f2363')"><path fill="#54381c" d="M74.164 178.879a23.412 23.412 0 0 1-1.004 6.758 23.244 23.244 0 0 1-2.926 6.172 23.32 23.32 0 0 1-12.613 9.344c-.734.222-1.473.406-2.223.554a23.033 23.033 0 0 1-4.546.445c-.762 0-1.524-.035-2.286-.109a23.387 23.387 0 0 1-8.703-2.637c-.672-.36-1.328-.75-1.96-1.176a22.342 22.342 0 0 1-1.84-1.359 23.32 23.32 0 0 1-5.77-7.02c-.36-.671-.684-1.359-.977-2.066a21.964 21.964 0 0 1-.77-2.148 22.963 22.963 0 0 1-1.003-6.758 23.13 23.13 0 0 1 1.004-6.754c.219-.73.476-1.45.77-2.152.292-.703.617-1.391.976-2.063.36-.672.754-1.328 1.176-1.96.426-.634.879-1.247 1.363-1.837a24.17 24.17 0 0 1 1.535-1.691c.543-.54 1.106-1.05 1.696-1.531a23.323 23.323 0 0 1 5.867-3.512c.707-.293 1.425-.55 2.156-.77a23.387 23.387 0 0 1 6.766-1.004 23.431 23.431 0 0 1 8.921 1.774 23.69 23.69 0 0 1 4.031 2.148 24.003 24.003 0 0 1 3.532 2.895 23.011 23.011 0 0 1 4.074 5.488c.36.672.688 1.36.98 2.063.29.703.547 1.422.77 2.152a23.13 23.13 0 0 1 1.004 6.754Zm0 0"/></g><path fill="#fff" d="M60.172 178.879c0 .613-.063 1.219-.18 1.816a9.327 9.327 0 0 1-3.965 5.922 9.49 9.49 0 0 1-1.609.86 9.171 9.171 0 0 1-1.746.527 9.19 9.19 0 0 1-1.82.18c-.61 0-1.22-.059-1.817-.18a9.124 9.124 0 0 1-1.75-.527 9.35 9.35 0 0 1-5.043-5.035 9.171 9.171 0 0 1-.527-1.747 9.122 9.122 0 0 1-.18-1.816c0-.61.059-1.215.18-1.813a9.238 9.238 0 0 1 1.39-3.355c.34-.508.727-.977 1.157-1.41a9.362 9.362 0 0 1 4.773-2.547 9.448 9.448 0 0 1 3.637 0c.598.121 1.18.297 1.746.531a9.368 9.368 0 0 1 3.023 2.016 9.22 9.22 0 0 1 2.02 3.02 9.295 9.295 0 0 1 .71 3.558Zm0 0"/><path d="M83.96 212.58v-4.621l6.722-.422v-2.98l-6.722.417v-4.261h7.207v-2.942H80.6v14.809ZM103.832 212.58v-2.942h-7.207v-3.004h6.156v-2.94h-6.156v-2.981h7.207v-2.942H93.265v14.809ZM120.571 212.58l-5.02-14.809h-5.464l-4.996 14.809h3.402l1.219-3.696h6.238l1.219 3.696Zm-8.172-11.867h.84l1.723 5.23h-4.286ZM135.293 208.506c0-3.09-4.18-4.266-6.91-5.188-2.375-.8-2.73-1.05-2.73-1.723 0-.757.945-1.093 2.457-1.093 1.828 0 3.214.504 3.214 2.308h3.36c0-2.937-2.035-5.25-6.574-5.25-3.825 0-5.82 1.387-5.82 3.907 0 2.898 2.542 3.742 5.671 4.789 2.164.738 3.973 1.218 3.973 2.293 0 .796-.715 1.3-2.88 1.3-2.94 0-4.073-.715-4.073-2.984h-3.364c0 3.742 1.996 5.926 7.332 5.926 4.559 0 6.344-1.746 6.344-4.285ZM136.55 197.771v2.942h4.856v11.867h3.36v-11.867h4.832v-2.942ZM160.727 212.58v-4.621l6.723-.422v-2.98l-6.723.417v-4.261h7.207v-2.942h-10.566v14.809ZM180.6 212.58v-2.942l-7.207.211v-12.078h-3.36v13.254c0 1.156.649 1.785 1.805 1.766ZM192.845 212.58v-2.942h-7.207v-3.004h6.156v-2.94h-6.156v-2.981h7.207v-2.942h-10.567v14.809ZM205.51 212.58v-2.942h-7.207v-3.004h6.156v-2.94h-6.156v-2.981h7.207v-2.942h-10.567v14.809ZM206.976 197.771v2.942h4.855v11.867h3.36v-11.867h4.832v-2.942Zm0 0" fill="#593118"/></svg>